<?xml version="1.0" encoding="UTF-8" standalone="no"?>
<!DOCTYPE svg PUBLIC "-//W3C//DTD SVG 1.1//EN" "http://www.w3.org/Graphics/SVG/1.1/DTD/svg11.dtd">
<svg xmlns="http://www.w3.org/2000/svg" version="1.1" viewBox="0.00 0.00 1351.00 1167.00">
<g stroke-width="2.00" fill="none" stroke-linecap="butt">
<path stroke="#47769e" vector-effect="non-scaling-stroke" d="
  M 851.91 311.50
  Q 851.39 314.05 849.80 311.33
  Q 849.21 310.33 848.07 308.22
  Q 846.40 305.11 845.78 301.58
  A 1.43 1.43 0.0 0 0 844.35 300.40
  Q 827.87 300.72 810.15 303.44
  Q 808.77 303.65 797.12 305.66
  Q 793.07 306.36 791.37 306.85
  C 786.50 308.25 782.15 309.07 777.18 310.75
  C 771.79 312.56 766.73 313.56 761.27 315.51
  Q 747.04 320.62 742.28 322.52
  Q 714.11 333.82 689.20 350.66
  Q 685.07 353.45 682.45 355.55
  C 676.80 360.10 671.17 363.89 666.05 368.34
  Q 649.97 382.34 636.24 397.09
  C 631.48 402.20 627.66 407.41 623.52 411.95
  Q 619.58 416.27 614.53 423.52
  Q 603.75 439.02 599.06 447.26
  Q 573.17 492.78 564.73 547.50
  Q 564.07 551.80 562.05 570.50
  C 561.18 578.55 555.86 577.98 548.59 578.04
  Q 530.36 578.21 519.12 577.97
  C 513.97 577.86 509.42 578.80 504.72 578.25
  A 0.36 0.35 -15.7 0 0 504.40 578.82
  C 513.10 589.98 520.88 602.80 528.92 613.72
  C 536.70 624.28 546.06 639.03 553.20 649.25
  C 559.92 658.86 566.86 669.58 574.27 679.44
  C 580.21 687.33 583.89 693.65 590.16 702.26
  Q 594.22 707.82 603.97 722.76
  A 0.68 0.67 -43.8 0 0 605.09 722.78
  L 705.80 578.19
  A 0.48 0.48 0.0 0 0 705.23 577.47
  Q 703.43 578.20 702.00 578.22
  Q 697.70 578.25 657.25 577.92
  C 650.74 577.87 648.51 572.87 648.86 567.25
  C 649.47 557.50 651.19 548.24 653.86 535.85
  Q 656.43 523.92 660.88 512.50
  C 680.05 463.35 718.24 422.22 766.47 400.54
  Q 796.59 387.01 828.88 383.73
  Q 849.07 381.68 857.52 382.12
  Q 887.71 383.69 914.38 392.67
  Q 919.90 394.53 925.58 396.55
  C 937.65 400.87 948.60 407.44 960.15 414.63
  Q 966.45 418.56 974.18 424.71
  Q 986.87 434.82 987.70 435.56
  C 1000.96 447.49 1010.46 461.43 1020.58 476.05
  Q 1026.10 484.02 1027.86 487.43
  Q 1031.34 494.16 1034.27 501.12
  A 0.48 0.48 0.0 0 0 1035.10 501.21
  C 1048.18 483.34 1063.32 461.93 1081.65 435.15
  Q 1083.07 433.08 1085.60 430.05
  Q 1087.67 427.56 1089.53 424.90"
/>
<path stroke="#977a58" vector-effect="non-scaling-stroke" d="
  M 1088.91 319.80
  Q 1092.85 323.40 1090.57 329.12
  Q 1088.58 334.13 1073.82 365.82
  A 0.71 0.71 0.0 0 0 1073.96 366.62
  Q 1076.15 368.76 1078.46 369.80
  Q 1111.78 384.82 1132.91 394.38
  Q 1149.96 402.09 1163.41 409.11
  Q 1167.68 411.34 1170.64 408.15
  Q 1176.04 402.34 1177.12 401.37
  C 1187.17 392.40 1200.45 390.32 1213.43 391.93
  A 2.28 2.27 16.0 0 0 1215.77 390.64
  C 1222.19 377.00 1227.96 362.86 1233.82 349.85
  Q 1277.00 253.99 1288.34 228.82
  Q 1290.54 223.93 1286.45 220.99
  C 1274.03 212.04 1269.53 197.54 1272.13 182.54
  Q 1272.88 178.26 1268.89 176.59
  Q 1263.04 174.14 1245.58 166.13
  C 1224.91 156.65 1200.90 146.40 1182.19 137.39
  Q 1180.62 136.63 1178.27 136.12
  A 1.10 1.09 -59.8 0 0 1177.30 136.38
  Q 1175.82 137.75 1175.05 139.81
  Q 1171.53 149.33 1169.43 153.86
  C 1164.38 164.79 1163.15 168.13 1159.14 177.56
  C 1156.38 184.04 1152.67 190.14 1149.73 195.97
  C 1148.83 197.74 1147.61 199.94 1145.39 200.22
  Q 1143.99 200.39 1142.73 200.14"
/>
<path stroke="#7e8c9d" vector-effect="non-scaling-stroke" d="
  M 1142.73 200.14
  L 1140.65 199.36"
/>
<path stroke="#97a5b2" vector-effect="non-scaling-stroke" d="
  M 1140.65 199.36
  Q 1137.70 197.61 1136.08 194.74
  A 3.92 3.89 41.3 0 1 1135.85 191.34
  C 1140.06 180.85 1145.34 169.91 1149.45 160.61
  Q 1158.80 139.47 1163.31 131.04
  A 1.85 1.85 0.0 0 0 1162.43 128.48
  L 998.28 54.75
  A 0.99 0.98 -52.9 0 0 997.23 54.90
  C 993.62 57.94 990.91 61.38 987.28 63.98
  Q 980.57 68.78 979.37 69.40
  Q 972.73 72.78 963.03 73.52
  C 959.67 73.78 955.07 72.49 951.14 72.53
  A 1.71 1.70 7.7 0 0 949.51 73.76
  Q 947.51 80.55 943.97 88.18
  C 939.55 97.72 934.12 110.73 930.14 120.06
  A 1.18 1.18 0.0 0 0 930.39 121.34
  C 936.00 126.92 939.19 133.79 941.33 141.38
  C 943.13 147.73 943.33 152.69 941.28 159.32
  Q 938.83 167.19 938.50 167.94
  Q 933.84 178.60 924.64 183.94
  C 917.16 188.27 909.71 190.92 900.82 190.38
  Q 896.97 190.14 895.63 193.13
  Q 888.10 209.88 877.62 234.90
  Q 876.76 236.96 877.40 239.40
  A 1.70 1.65 -77.3 0 0 877.92 240.25
  C 885.40 246.87 892.16 254.88 893.76 265.20
  Q 895.24 274.73 893.65 283.89
  A 2.65 2.65 0.0 0 0 895.14 286.75
  Q 906.76 292.17 915.95 296.06
  C 929.93 301.98 944.12 308.89 957.54 314.76
  Q 978.39 323.86 1006.95 336.99
  C 1010.82 338.77 1015.21 341.16 1018.60 342.67
  Q 1030.33 347.91 1040.35 352.35
  C 1046.33 355.00 1051.86 358.08 1057.77 360.33
  A 1.87 1.87 0.0 0 0 1060.13 359.37
  Q 1069.03 340.23 1074.21 328.49
  Q 1075.18 326.29 1077.10 321.12
  Q 1077.96 318.79 1079.95 317.90
  A 1.55 1.55 0.0 0 1 1080.96 317.81
  L 1088.91 319.80"
/>
<path stroke="#dde4e9" vector-effect="non-scaling-stroke" d="
  M 1140.65 199.36
  Q 1137.02 207.09 1131.94 213.64
  A 1.63 1.62 -29.8 0 0 1131.61 214.83
  Q 1131.73 215.80 1131.34 216.88
  A 0.23 0.22 13.7 0 0 1131.53 217.18
  A 0.16 0.15 -0.0 0 0 1131.69 217.03
  L 1131.72 214.42
  A 0.62 0.60 -23.0 0 1 1131.90 213.99
  L 1135.30 210.59
  A 0.06 0.06 0.0 0 1 1135.41 210.64
  Q 1135.41 210.76 1135.37 211.02
  A 0.76 0.73 77.7 0 1 1135.06 211.52
  Q 1132.44 213.41 1132.55 215.98"
/>
<path stroke="#f6d2a4" vector-effect="non-scaling-stroke" d="
  M 1132.55 215.98
  Q 1134.01 216.28 1132.05 218.04"
/>
<path stroke="#97a5b2" vector-effect="non-scaling-stroke" d="
  M 1132.05 218.04
  C 1126.94 215.46 1122.68 219.54 1120.80 223.92
  Q 1112.73 242.72 1109.21 250.29
  C 1102.73 264.20 1097.51 277.39 1091.34 290.18
  Q 1090.23 292.48 1089.90 294.84
  A 2.22 2.20 -55.5 0 0 1090.14 296.16
  Q 1092.53 300.59 1097.80 301.68"
/>
<path stroke="#f6d2a4" vector-effect="non-scaling-stroke" d="
  M 1097.80 301.68
  Q 1097.48 302.81 1095.25 303.60
  A 0.99 0.98 89.5 0 0 1094.63 304.24
  Q 1093.21 308.81 1090.65 312.87
  Q 1089.76 314.29 1088.91 319.80"
/>
<path stroke="#977a58" vector-effect="non-scaling-stroke" d="
  M 1097.80 301.68
  C 1102.16 301.36 1104.77 298.41 1106.36 294.67
  C 1113.10 278.77 1120.47 263.27 1126.74 248.62
  Q 1133.63 232.51 1135.26 229.58
  Q 1136.60 227.15 1137.06 224.64
  C 1137.59 221.68 1134.26 219.19 1132.05 218.04"
/>
<path stroke="#ddb98f" vector-effect="non-scaling-stroke" d="
  M 1132.55 215.98
  Q 1135.39 212.32 1137.41 207.86
  Q 1138.21 206.11 1139.20 205.13
  A 0.80 0.79 -52.7 0 0 1139.04 203.86
  Q 1138.92 203.79 1138.75 203.94
  A 0.12 0.12 0.0 0 1 1138.55 203.86
  Q 1138.54 203.57 1138.69 203.14
  A 0.80 0.76 -1.4 0 1 1139.15 202.68
  Q 1141.40 201.84 1142.73 200.14"
/>
<path stroke="#adbbc5" vector-effect="non-scaling-stroke" d="
  M 937.91 256.38
  A 2.98 2.97 -54.8 0 1 937.34 253.04
  C 944.46 237.77 949.58 225.53 956.35 210.41
  Q 973.48 172.21 975.08 168.81
  C 981.47 155.19 987.20 140.14 994.47 126.11
  Q 998.53 118.27 1001.89 109.42
  Q 1003.29 105.74 1007.11 107.33
  Q 1018.43 112.06 1027.98 116.49
  Q 1064.86 133.59 1100.62 148.61
  Q 1104.38 150.19 1105.51 150.20
  A 2.94 2.86 -54.7 0 0 1106.54 150.01
  C 1111.82 147.99 1112.01 140.49 1108.43 136.98
  Q 1106.66 135.25 1103.88 133.83
  Q 1103.25 133.51 1084.34 124.74
  C 1077.82 121.71 1072.04 119.56 1066.98 117.06
  C 1055.00 111.16 1042.91 106.35 1031.30 100.62
  C 1024.29 97.16 1015.35 93.49 1009.94 92.33
  C 1002.04 90.63 992.71 94.10 988.61 101.36
  C 984.60 108.46 980.80 118.50 977.57 125.30
  C 968.17 145.09 960.86 163.33 952.15 182.09
  Q 945.11 197.25 940.11 208.82
  Q 931.98 227.66 926.87 238.62
  Q 924.34 244.06 923.07 249.74
  C 921.54 256.60 923.33 264.67 929.74 268.29
  Q 938.88 273.47 948.95 278.05
  Q 981.70 292.95 1014.13 307.61
  Q 1021.78 311.07 1027.54 313.49
  Q 1029.61 314.35 1031.77 314.38
  A 2.15 1.96 -53.6 0 0 1032.63 314.21
  Q 1036.69 312.41 1037.21 307.04
  Q 1037.85 300.57 1032.53 298.55
  C 1025.47 295.87 1018.70 292.35 1012.56 289.76
  Q 997.51 283.41 977.84 274.51
  Q 951.50 262.59 942.14 258.93
  Q 939.35 257.85 937.91 256.38"
/>
<path stroke="#97a5b2" vector-effect="non-scaling-stroke" d="
  M 1092.63 186.07
  A 0.65 0.65 0.0 0 0 1091.78 185.73
  C 1075.04 192.79 1052.39 204.83 1042.19 209.76
  C 1035.60 212.95 1030.50 216.09 1023.24 219.76
  A 0.78 0.77 58.9 0 1 1022.25 219.51
  Q 1020.78 217.43 1019.65 215.12
  Q 1013.97 203.47 1009.83 192.95
  Q 1009.53 192.19 1007.08 189.11
  A 0.84 0.83 -31.2 0 0 1006.09 188.87
  L 989.13 196.52
  A 1.40 1.40 0.0 0 0 988.43 198.36
  C 992.01 206.48 995.24 214.58 999.06 222.52
  Q 1004.24 233.28 1009.05 244.44
  Q 1009.98 246.60 1011.47 248.55
  A 0.91 0.90 -26.3 0 0 1012.44 248.87
  Q 1015.07 248.15 1017.59 246.86
  Q 1051.62 229.39 1097.35 206.91
  Q 1098.63 206.29 1100.25 204.89
  A 1.11 1.10 -32.6 0 0 1100.54 203.60
  L 1092.63 186.07"
/>
<path stroke="#977a58" vector-effect="non-scaling-stroke" d="
  M 1218.95 228.98
  A 4.20 4.15 -45.2 0 1 1218.96 226.11
  Q 1222.58 216.28 1222.64 216.14
  Q 1224.66 210.95 1220.80 207.46
  C 1215.85 202.98 1209.45 206.37 1207.68 211.95
  C 1206.48 215.76 1204.21 222.20 1200.63 223.24
  Q 1182.94 228.41 1172.84 231.84
  C 1168.17 233.43 1161.61 236.22 1159.79 240.30
  Q 1142.57 278.87 1132.48 302.21
  C 1129.76 308.50 1128.00 316.00 1135.53 319.56
  Q 1151.47 327.09 1169.29 334.82
  C 1174.24 336.97 1181.89 340.57 1186.80 343.27
  C 1193.19 346.78 1199.52 345.08 1202.90 338.83
  C 1205.84 333.39 1207.64 328.79 1211.37 320.03
  Q 1213.29 315.54 1217.35 306.61
  Q 1228.56 281.94 1230.50 277.25
  C 1233.35 270.39 1233.34 266.85 1230.32 259.43
  Q 1226.27 249.47 1218.95 228.98"
/>
<path stroke="#977a58" vector-effect="non-scaling-stroke" d="
  M 1188.4201 250.0270
  A 9.96 9.73 -173.7 0 0 1197.2523 260.7912
  A 9.96 9.73 -173.7 0 0 1208.2199 252.2130
  A 9.96 9.73 -173.7 0 0 1199.3877 241.4488
  A 9.96 9.73 -173.7 0 0 1188.4201 250.0270"
/>
<path stroke="#4e6379" vector-effect="non-scaling-stroke" d="
  M 570.86 708.98
  Q 564.76 699.14 562.53 696.73
  Q 559.10 693.01 556.72 688.92
  A 0.71 0.71 0.0 0 0 555.40 689.28
  Q 555.41 699.08 556.29 713.96
  Q 556.62 719.57 554.89 724.82"
/>
<path stroke="#97a5b2" vector-effect="non-scaling-stroke" d="
  M 554.89 724.82
  L 553.33 685.14
  A 5.47 5.44 -62.0 0 0 552.52 682.46
  C 547.37 674.07 541.80 666.81 536.40 658.71
  C 529.91 648.98 522.46 638.35 515.52 627.91
  Q 512.23 622.96 508.65 618.70"
/>
<path stroke="#4e6379" vector-effect="non-scaling-stroke" d="
  M 508.65 618.70
  L 507.35 617.98
  A 1.02 0.99 -79.9 0 1 506.85 617.24
  Q 506.66 615.76 506.12 614.93
  Q 504.03 611.76 498.80 604.73"
/>
<path stroke="#97a5b2" vector-effect="non-scaling-stroke" d="
  M 498.80 604.73
  Q 497.53 602.80 496.41 601.05
  Q 489.91 590.89 482.94 581.05
  Q 480.00 576.90 476.98 570.12"
/>
<path stroke="#4e6379" vector-effect="non-scaling-stroke" d="
  M 476.98 570.12
  L 481.45 560.97"
/>
<path stroke="#97a5b2" vector-effect="non-scaling-stroke" d="
  M 481.45 560.97
  Q 485.32 559.23 488.75 559.21
  Q 507.32 559.10 528.14 559.15
  A 0.59 0.59 0.0 0 0 528.69 558.35
  Q 528.58 558.08 527.89 557.44
  C 518.90 549.16 510.97 543.40 502.20 535.69
  Q 493.03 527.63 483.59 519.78"
/>
<path stroke="#4e6379" vector-effect="non-scaling-stroke" d="
  M 483.59 519.78
  Q 486.08 520.82 488.65 522.40
  Q 490.73 523.68 492.16 525.50
  A 3.48 3.43 -0.4 0 0 492.83 526.15
  Q 496.82 529.07 499.49 531.63
  Q 503.45 535.42 505.87 537.22
  Q 513.66 543.00 521.96 550.63
  C 523.36 551.92 525.59 552.77 526.31 553.99
  C 527.40 555.82 528.62 556.70 530.12 558.31
  A 4.72 4.71 -20.9 0 0 533.51 559.82
  Q 535.81 559.85 541.99 559.91
  Q 544.58 559.94 544.54 557.00
  Q 544.46 552.56 544.25 551.15"
/>
<path stroke="#7e8c9d" vector-effect="non-scaling-stroke" d="
  M 544.25 551.15
  C 547.13 535.26 549.09 519.21 554.03 504.46
  C 555.01 501.55 555.60 498.44 556.51 495.48
  Q 565.06 467.94 579.21 442.71
  C 587.66 427.65 593.84 416.83 604.53 404.28
  Q 608.76 399.32 610.24 396.55
  A 0.29 0.29 0.0 0 0 609.96 396.13
  Q 607.30 396.32 574.00 396.33
  Q 290.37 396.42 203.12 396.38
  C 193.98 396.38 184.04 397.49 176.14 401.67
  C 161.07 409.64 149.53 421.89 144.45 438.20
  Q 141.89 446.41 141.62 448.35
  Q 133.29 507.96 124.72 563.96
  Q 123.67 570.85 113.99 638.51
  C 112.99 645.49 111.29 652.98 110.59 658.94
  Q 107.13 688.04 95.73 761.19
  Q 90.54 794.56 75.45 902.49
  Q 71.06 933.88 66.91 957.42
  A 0.47 0.47 0.0 0 0 67.68 957.86
  Q 73.02 953.28 76.45 950.71
  Q 93.56 937.85 114.64 934.96
  C 121.15 934.06 126.60 934.28 135.25 934.26
  C 260.67 934.07 528.79 934.44 744.75 934.14
  Q 751.89 934.13 758.37 935.64
  C 766.38 937.50 772.68 938.89 779.72 942.98
  Q 788.73 948.22 793.82 951.66
  C 796.50 953.46 798.52 955.42 801.01 957.69
  A 0.42 0.41 -73.1 0 0 801.70 957.32
  L 787.82 869.08
  A 2.05 2.05 0.0 0 0 786.25 867.39
  Q 761.37 861.83 737.44 853.21
  C 734.24 852.07 731.58 850.42 728.07 849.11
  C 713.36 843.61 699.52 836.07 685.46 828.00
  Q 675.80 822.45 665.04 814.30
  Q 645.70 799.66 631.28 785.97
  Q 616.89 772.31 602.13 753.37
  C 592.44 740.93 581.32 723.82 570.86 708.98"
/>
<path stroke="#94a2b0" vector-effect="non-scaling-stroke" d="
  M 544.25 551.15
  Q 528.74 537.97 514.05 524.97
  C 510.30 521.66 505.89 518.64 502.55 515.44
  Q 492.36 505.67 479.77 496.48
  C 477.03 494.48 473.17 494.54 470.25 494.54
  Q 423.60 494.52 386.18 494.31
  Q 374.92 494.24 357.83 494.41
  C 346.47 494.52 333.80 494.06 321.16 494.32
  C 313.95 494.48 308.64 495.87 302.84 499.57
  C 298.37 502.42 292.67 507.37 290.61 512.32
  Q 287.98 518.65 287.51 526.87
  C 287.04 534.90 286.30 544.05 286.13 548.25
  Q 284.61 584.31 282.58 619.77
  Q 281.17 644.48 279.87 666.99
  Q 278.26 694.80 273.75 773.44
  C 273.58 776.43 273.81 779.74 274.63 782.69
  Q 279.34 799.70 296.47 806.92
  Q 302.57 809.49 310.52 809.51
  Q 370.09 809.62 383.34 809.54
  C 434.19 809.22 496.20 809.84 540.25 809.36
  C 559.44 809.15 575.41 794.26 574.67 774.50
  Q 573.62 746.52 572.47 722.75
  Q 572.11 715.28 570.86 708.98"
/>
<path stroke="#adbbc5" vector-effect="non-scaling-stroke" d="
  M 483.59 519.78
  L 481.05 518.55
  A 0.45 0.45 0.0 0 0 480.40 518.96
  L 481.45 560.97"
/>
<path stroke="#adbbc5" vector-effect="non-scaling-stroke" d="
  M 476.98 570.12
  Q 474.68 566.49 471.37 562.89
  Q 468.27 559.53 467.51 556.70
  Q 466.74 553.89 466.83 547.75
  Q 467.12 526.90 466.42 510.71
  A 1.35 1.34 -1.1 0 0 465.08 509.43
  Q 436.27 509.29 399.50 509.48
  Q 378.21 509.60 322.99 509.15
  Q 314.14 509.08 308.53 515.76
  Q 304.80 520.21 304.66 523.68
  C 303.85 544.34 302.21 564.81 301.47 583.24
  Q 300.41 609.56 299.12 630.25
  Q 296.65 669.82 294.62 713.08
  C 293.81 730.20 291.74 755.92 291.23 772.74
  C 290.96 781.51 294.95 789.25 303.27 792.14
  Q 306.23 793.17 313.76 793.16
  Q 511.58 793.00 537.66 793.13
  C 544.32 793.17 549.45 792.22 553.20 787.23
  Q 557.62 781.33 557.42 773.99
  Q 556.76 749.34 554.89 724.82"
/>
<path stroke="#adbbc5" vector-effect="non-scaling-stroke" d="
  M 498.80 604.73
  Q 494.87 604.02 492.51 604.00
  Q 481.04 603.89 454.52 603.90
  Q 450.04 603.90 448.20 604.83
  C 443.47 607.22 443.51 612.98 447.02 616.28
  Q 449.77 618.87 453.50 619.01
  Q 478.66 619.98 508.65 618.70"
/>
<path stroke="#7e8c9d" vector-effect="non-scaling-stroke" d="
  M 670.45 559.46
  Q 690.75 559.25 721.24 559.23
  Q 727.16 559.22 730.33 564.21
  Q 733.93 569.88 730.23 575.99
  Q 719.04 594.42 710.33 606.23
  C 700.45 619.63 693.76 630.58 683.97 644.05
  A 3.26 3.26 0.0 0 0 683.59 647.22
  C 690.99 665.01 701.36 679.39 714.73 694.57
  C 723.82 704.89 733.64 711.85 744.84 719.92
  C 753.23 725.97 760.19 729.92 769.20 734.65
  A 0.38 0.38 0.0 0 0 769.74 734.22
  Q 768.41 729.18 767.56 723.99
  Q 761.93 689.46 757.38 658.69
  Q 745.03 575.04 736.51 514.53
  C 735.97 510.69 734.88 506.11 734.49 503.00
  Q 733.41 494.52 727.28 450.16
  A 0.40 0.39 -26.6 0 0 726.61 449.94
  C 704.74 471.57 686.13 497.67 677.16 527.48
  Q 673.17 540.77 671.49 547.74
  Q 670.25 552.87 669.93 558.92
  A 0.52 0.52 0.0 0 0 670.45 559.46"
/>
<path stroke="#977a58" vector-effect="non-scaling-stroke" d="
  M 991.40 600.54
  Q 994.21 600.80 1000.75 600.81
  Q 1025.48 600.87 1036.25 600.69
  C 1043.08 600.57 1049.82 603.69 1048.89 611.68
  C 1046.78 629.91 1039.57 648.75 1031.52 664.80
  Q 1025.90 676.00 1015.38 690.48
  C 1011.32 696.07 1007.10 700.19 1002.74 705.58
  Q 998.59 710.73 992.55 716.23
  Q 978.85 728.71 963.96 738.63
  C 959.61 741.53 954.84 744.01 950.67 746.48
  Q 945.39 749.61 940.49 752.02
  Q 905.25 769.32 865.73 772.38
  Q 836.29 774.65 806.70 767.84
  Q 755.79 756.11 716.97 722.78
  Q 710.09 716.88 697.28 703.23
  C 686.70 691.96 678.24 678.06 670.35 664.89
  A 0.75 0.74 47.2 0 0 669.10 664.84
  L 617.64 737.76
  A 2.24 2.23 48.9 0 0 617.49 740.08
  Q 619.20 743.37 620.90 745.51
  Q 638.74 767.93 658.25 783.91
  C 670.81 794.20 685.78 805.44 700.23 813.76
  Q 716.46 823.10 731.58 829.60
  Q 752.68 838.68 778.96 845.25
  Q 799.11 850.29 813.00 852.25
  Q 863.97 859.42 914.03 847.82
  Q 938.25 842.20 954.29 836.34
  C 962.92 833.18 972.02 829.11 982.15 824.36
  Q 1005.16 813.59 1028.89 796.00
  Q 1034.44 791.89 1040.91 786.27
  C 1051.24 777.30 1061.67 768.04 1068.80 759.55
  Q 1077.77 748.87 1086.54 737.82
  Q 1090.34 733.02 1092.71 729.22
  Q 1111.83 698.66 1122.07 672.85
  Q 1127.61 658.92 1132.86 635.62
  C 1134.82 626.94 1135.51 618.43 1137.08 609.29
  Q 1138.59 600.55 1147.99 600.79
  Q 1158.45 601.06 1181.25 601.03
  Q 1187.40 601.02 1193.44 601.55
  A 0.66 0.66 0.0 0 0 1194.04 600.51
  L 1092.67 455.20
  A 0.82 0.81 -39.2 0 0 1091.44 455.08
  Q 1090.02 456.43 1089.28 457.52
  Q 1079.67 471.66 1069.54 486.03
  Q 1063.07 495.20 1036.70 533.75
  Q 1030.31 543.09 1024.07 551.62
  Q 1019.64 557.69 1011.38 569.44
  Q 1005.16 578.29 1001.25 584.59
  Q 997.02 591.39 990.99 599.64
  A 0.57 0.57 0.0 0 0 991.40 600.54"
/>
<path stroke="#4e6379" vector-effect="non-scaling-stroke" d="
  M 809.66 1033.69
  Q 811.41 1018.48 806.90 1004.13
  Q 797.94 975.63 771.77 961.48
  C 762.93 956.70 753.46 954.48 742.47 954.30
  Q 732.44 954.13 727.75 954.15
  Q 694.32 954.32 659.27 954.32
  C 414.58 954.33 308.39 954.34 132.26 954.23
  Q 121.53 954.23 116.12 955.15
  C 98.37 958.17 82.84 967.60 72.61 982.42
  Q 68.91 987.78 66.79 991.56
  C 59.12 1005.24 56.13 1021.33 59.16 1037.00
  Q 61.21 1047.56 64.38 1054.40
  Q 78.04 1083.92 110.26 1093.25
  Q 116.74 1095.13 122.76 1095.20
  Q 171.09 1095.75 199.75 1095.69
  C 243.15 1095.60 285.99 1095.84 328.50 1095.75
  Q 432.99 1095.53 515.00 1095.84
  Q 569.42 1096.05 601.50 1095.84
  Q 642.98 1095.55 688.00 1095.67
  Q 727.82 1095.78 741.01 1095.65
  Q 768.46 1095.38 786.61 1078.07
  C 790.79 1074.08 794.98 1070.19 797.90 1065.64
  Q 801.23 1060.43 804.69 1052.95
  C 807.51 1046.86 808.83 1040.96 809.66 1033.69"
/>
<path stroke="#97a5b2" vector-effect="non-scaling-stroke" d="
  M 335.95 553.05
  Q 334.83 555.28 334.63 559.12
  Q 333.29 584.36 332.43 611.66
  C 332.31 615.34 331.77 618.41 336.22 618.35
  Q 349.98 618.15 350.82 618.17
  A 1.70 1.66 28.4 0 0 351.77 617.90
  Q 352.94 617.17 353.00 614.49
  Q 353.29 601.41 354.07 582.23
  A 0.50 0.49 -69.7 0 1 354.87 581.86
  Q 357.52 583.95 359.74 586.77
  Q 370.54 600.50 372.30 602.84
  Q 374.96 606.40 376.45 606.86
  C 381.40 608.39 386.13 602.72 389.03 599.02
  Q 395.27 591.08 401.78 583.44"
/>
<path stroke="#adbbc5" vector-effect="non-scaling-stroke" d="
  M 401.78 583.44
  Q 402.60 583.17 403.13 582.66
  A 0.64 0.64 0.0 0 1 404.21 583.13
  L 403.47 615.98
  A 2.14 2.14 0.0 0 0 405.56 618.17
  L 422.91 618.57
  A 2.34 2.34 0.0 0 0 425.30 616.29
  Q 425.53 606.75 425.23 598.37
  C 424.73 584.53 424.85 566.99 424.87 558.25
  Q 424.88 555.45 424.27 553.92
  A 1.39 1.38 -10.2 0 0 423.01 553.05
  L 405.85 552.83
  A 2.40 2.40 0.0 0 0 404.65 553.13
  C 402.49 554.19 399.06 558.71 397.73 560.49
  Q 393.99 565.49 382.80 579.55
  Q 381.36 581.37 380.44 581.58
  Q 378.81 581.97 377.61 580.55
  Q 374.58 576.98 368.64 569.03
  C 365.05 564.22 360.90 559.90 355.77 554.13
  A 4.34 4.33 68.5 0 0 352.45 552.68
  L 335.95 553.05"
/>
<path stroke="#4e6379" vector-effect="non-scaling-stroke" d="
  M 401.78 583.44
  Q 401.29 582.95 398.94 584.83
  A 6.55 6.55 0.0 0 0 397.98 585.79
  Q 392.61 592.54 385.77 600.39
  C 384.01 602.39 382.08 603.85 380.00 605.02
  Q 377.57 606.39 375.45 604.01
  Q 367.83 595.49 362.78 588.32
  Q 361.02 585.82 356.09 581.16
  A 1.66 1.65 -20.6 0 0 355.09 580.71
  Q 352.22 580.49 352.06 583.03
  Q 351.47 592.57 351.65 615.33
  A 0.94 0.92 73.2 0 1 351.23 616.13
  Q 349.94 617.01 347.77 616.88
  Q 340.68 616.49 335.39 616.40
  A 0.62 0.62 0.0 0 1 334.77 615.77
  L 336.14 555.40
  A 0.91 0.89 -12.2 0 1 336.67 554.60
  L 338.62 553.72
  A 0.14 0.13 -52.1 0 0 338.59 553.46
  L 335.95 553.05"
/>
<path stroke="#adbbc5" vector-effect="non-scaling-stroke" d="
  M 519.95 644.43
  A 7.06 7.06 0.0 0 0 512.89 637.37
  L 337.83 637.37
  A 7.06 7.06 0.0 0 0 330.77 644.43
  L 330.77 645.59
  A 7.06 7.06 0.0 0 0 337.83 652.65
  L 512.89 652.65
  A 7.06 7.06 0.0 0 0 519.95 645.59
  L 519.95 644.43"
/>
<path stroke="#adbbc5" vector-effect="non-scaling-stroke" d="
  M 520.7900 678.1873
  A 7.61 7.61 0.0 0 0 513.1933 670.5640
  L 336.7536 670.2560
  A 7.61 7.61 0.0 0 0 329.1303 677.8527
  L 329.1300 678.0327
  A 7.61 7.61 0.0 0 0 336.7267 685.6560
  L 513.1664 685.9640
  A 7.61 7.61 0.0 0 0 520.7897 678.3673
  L 520.7900 678.1873"
/>
<path stroke="#adbbc5" vector-effect="non-scaling-stroke" d="
  M 521.63 711.39
  A 7.69 7.69 0.0 0 0 513.94 703.70
  L 335.18 703.70
  A 7.69 7.69 0.0 0 0 327.49 711.39
  L 327.49 711.55
  A 7.69 7.69 0.0 0 0 335.18 719.24
  L 513.94 719.24
  A 7.69 7.69 0.0 0 0 521.63 711.55
  L 521.63 711.39"
/>
<path stroke="#adbbc5" vector-effect="non-scaling-stroke" d="
  M 452.23 744.98
  A 7.61 7.61 0.0 0 0 444.62 737.37
  L 333.78 737.37
  A 7.61 7.61 0.0 0 0 326.17 744.98
  L 326.17 745.20
  A 7.61 7.61 0.0 0 0 333.78 752.81
  L 444.62 752.81
  A 7.61 7.61 0.0 0 0 452.23 745.20
  L 452.23 744.98"
/>
</g>
<g>
<path fill="#384d66" d="
  M 874.34 295.13
  C 872.17 292.85 871.63 289.84 872.36 286.99
  C 873.08 284.16 875.41 277.57 875.38 272.18
  C 875.34 266.47 872.08 260.43 868.44 256.20
  A 4.92 4.68 -1.4 0 0 867.58 255.42
  Q 864.95 253.54 858.45 249.08
  C 855.29 246.92 854.93 241.46 855.26 238.07
  Q 855.45 236.15 857.92 230.71
  Q 875.51 191.94 881.36 178.10
  C 884.05 171.74 888.42 170.06 894.68 171.08
  Q 898.13 171.64 898.51 171.70
  Q 911.98 173.77 920.02 162.53
  Q 924.24 156.63 924.04 149.27
  C 923.75 138.73 917.53 135.35 910.46 129.06
  C 906.41 125.46 908.24 119.78 910.32 115.72
  Q 914.64 107.30 917.41 100.54
  Q 919.59 95.20 921.63 91.37
  C 923.71 87.44 924.96 83.18 926.96 78.99
  Q 930.05 72.50 933.53 63.31
  C 935.36 58.49 939.93 53.10 946.05 52.22
  Q 947.83 51.96 952.92 53.39
  Q 959.69 55.29 965.23 54.41
  Q 969.89 53.67 976.74 48.82
  A 10.21 10.03 89.0 0 0 979.43 45.98
  Q 982.78 40.69 982.84 40.61
  C 986.19 35.52 992.90 31.65 998.95 34.38
  Q 1011.31 39.95 1021.90 44.43
  Q 1032.23 48.79 1044.83 54.59
  Q 1065.25 63.98 1089.34 74.70
  Q 1090.80 75.35 1113.18 85.49
  Q 1118.20 87.77 1168.09 110.37
  Q 1241.37 143.57 1281.70 161.42
  C 1285.01 162.89 1289.89 165.66 1291.54 168.98
  C 1293.60 173.15 1293.31 177.80 1291.76 182.31
  C 1288.88 190.70 1288.98 198.22 1294.92 205.17
  A 7.99 7.98 -2.0 0 0 1296.24 206.40
  Q 1297.81 207.56 1300.97 209.52
  C 1307.92 213.81 1312.69 221.42 1309.02 229.53
  Q 1301.47 246.26 1294.08 262.11
  C 1292.09 266.37 1290.12 271.78 1288.22 275.98
  Q 1283.04 287.46 1262.01 334.11
  Q 1260.10 338.35 1258.69 342.01
  C 1256.65 347.33 1253.55 352.77 1251.58 357.84
  C 1250.11 361.61 1248.25 364.83 1246.60 368.48
  Q 1237.60 388.35 1231.09 403.80
  Q 1229.92 406.58 1227.97 409.28
  C 1223.03 416.11 1216.54 413.11 1210.32 411.32
  C 1202.06 408.95 1192.56 412.31 1186.92 418.25
  C 1184.87 420.39 1182.92 423.72 1181.15 425.90
  C 1175.41 432.92 1169.06 431.66 1161.72 428.27
  C 1137.28 417.01 1117.32 407.75 1090.88 396.06
  Q 1077.51 390.15 1067.13 385.31
  C 1057.02 380.60 1047.04 376.28 1035.52 370.92
  C 1006.54 357.42 979.73 345.50 948.75 331.31
  Q 926.85 321.28 901.96 310.29
  C 895.72 307.53 891.32 305.04 885.07 302.47
  Q 878.92 299.94 874.34 295.13
  Z
  M 1088.91 319.80
  Q 1092.85 323.40 1090.57 329.12
  Q 1088.58 334.13 1073.82 365.82
  A 0.71 0.71 0.0 0 0 1073.96 366.62
  Q 1076.15 368.76 1078.46 369.80
  Q 1111.78 384.82 1132.91 394.38
  Q 1149.96 402.09 1163.41 409.11
  Q 1167.68 411.34 1170.64 408.15
  Q 1176.04 402.34 1177.12 401.37
  C 1187.17 392.40 1200.45 390.32 1213.43 391.93
  A 2.28 2.27 16.0 0 0 1215.77 390.64
  C 1222.19 377.00 1227.96 362.86 1233.82 349.85
  Q 1277.00 253.99 1288.34 228.82
  Q 1290.54 223.93 1286.45 220.99
  C 1274.03 212.04 1269.53 197.54 1272.13 182.54
  Q 1272.88 178.26 1268.89 176.59
  Q 1263.04 174.14 1245.58 166.13
  C 1224.91 156.65 1200.90 146.40 1182.19 137.39
  Q 1180.62 136.63 1178.27 136.12
  A 1.10 1.09 -59.8 0 0 1177.30 136.38
  Q 1175.82 137.75 1175.05 139.81
  Q 1171.53 149.33 1169.43 153.86
  C 1164.38 164.79 1163.15 168.13 1159.14 177.56
  C 1156.38 184.04 1152.67 190.14 1149.73 195.97
  C 1148.83 197.74 1147.61 199.94 1145.39 200.22
  Q 1143.99 200.39 1142.73 200.14
  L 1140.65 199.36
  Q 1137.70 197.61 1136.08 194.74
  A 3.92 3.89 41.3 0 1 1135.85 191.34
  C 1140.06 180.85 1145.34 169.91 1149.45 160.61
  Q 1158.80 139.47 1163.31 131.04
  A 1.85 1.85 0.0 0 0 1162.43 128.48
  L 998.28 54.75
  A 0.99 0.98 -52.9 0 0 997.23 54.90
  C 993.62 57.94 990.91 61.38 987.28 63.98
  Q 980.57 68.78 979.37 69.40
  Q 972.73 72.78 963.03 73.52
  C 959.67 73.78 955.07 72.49 951.14 72.53
  A 1.71 1.70 7.7 0 0 949.51 73.76
  Q 947.51 80.55 943.97 88.18
  C 939.55 97.72 934.12 110.73 930.14 120.06
  A 1.18 1.18 0.0 0 0 930.39 121.34
  C 936.00 126.92 939.19 133.79 941.33 141.38
  C 943.13 147.73 943.33 152.69 941.28 159.32
  Q 938.83 167.19 938.50 167.94
  Q 933.84 178.60 924.64 183.94
  C 917.16 188.27 909.71 190.92 900.82 190.38
  Q 896.97 190.14 895.63 193.13
  Q 888.10 209.88 877.62 234.90
  Q 876.76 236.96 877.40 239.40
  A 1.70 1.65 -77.3 0 0 877.92 240.25
  C 885.40 246.87 892.16 254.88 893.76 265.20
  Q 895.24 274.73 893.65 283.89
  A 2.65 2.65 0.0 0 0 895.14 286.75
  Q 906.76 292.17 915.95 296.06
  C 929.93 301.98 944.12 308.89 957.54 314.76
  Q 978.39 323.86 1006.95 336.99
  C 1010.82 338.77 1015.21 341.16 1018.60 342.67
  Q 1030.33 347.91 1040.35 352.35
  C 1046.33 355.00 1051.86 358.08 1057.77 360.33
  A 1.87 1.87 0.0 0 0 1060.13 359.37
  Q 1069.03 340.23 1074.21 328.49
  Q 1075.18 326.29 1077.10 321.12
  Q 1077.96 318.79 1079.95 317.90
  A 1.55 1.55 0.0 0 1 1080.96 317.81
  L 1088.91 319.80
  Z"
/>
<path fill="#384d66" d="
  M 851.91 311.50
  Q 851.39 314.05 849.80 311.33
  Q 849.21 310.33 848.07 308.22
  Q 846.40 305.11 845.78 301.58
  A 1.43 1.43 0.0 0 0 844.35 300.40
  Q 827.87 300.72 810.15 303.44
  Q 808.77 303.65 797.12 305.66
  Q 793.07 306.36 791.37 306.85
  C 786.50 308.25 782.15 309.07 777.18 310.75
  C 771.79 312.56 766.73 313.56 761.27 315.51
  Q 747.04 320.62 742.28 322.52
  Q 714.11 333.82 689.20 350.66
  Q 685.07 353.45 682.45 355.55
  C 676.80 360.10 671.17 363.89 666.05 368.34
  Q 649.97 382.34 636.24 397.09
  C 631.48 402.20 627.66 407.41 623.52 411.95
  Q 619.58 416.27 614.53 423.52
  Q 603.75 439.02 599.06 447.26
  Q 573.17 492.78 564.73 547.50
  Q 564.07 551.80 562.05 570.50
  C 561.18 578.55 555.86 577.98 548.59 578.04
  Q 530.36 578.21 519.12 577.97
  C 513.97 577.86 509.42 578.80 504.72 578.25
  A 0.36 0.35 -15.7 0 0 504.40 578.82
  C 513.10 589.98 520.88 602.80 528.92 613.72
  C 536.70 624.28 546.06 639.03 553.20 649.25
  C 559.92 658.86 566.86 669.58 574.27 679.44
  C 580.21 687.33 583.89 693.65 590.16 702.26
  Q 594.22 707.82 603.97 722.76
  A 0.68 0.67 -43.8 0 0 605.09 722.78
  L 705.80 578.19
  A 0.48 0.48 0.0 0 0 705.23 577.47
  Q 703.43 578.20 702.00 578.22
  Q 697.70 578.25 657.25 577.92
  C 650.74 577.87 648.51 572.87 648.86 567.25
  C 649.47 557.50 651.19 548.24 653.86 535.85
  Q 656.43 523.92 660.88 512.50
  C 680.05 463.35 718.24 422.22 766.47 400.54
  Q 796.59 387.01 828.88 383.73
  Q 849.07 381.68 857.52 382.12
  Q 887.71 383.69 914.38 392.67
  Q 919.90 394.53 925.58 396.55
  C 937.65 400.87 948.60 407.44 960.15 414.63
  Q 966.45 418.56 974.18 424.71
  Q 986.87 434.82 987.70 435.56
  C 1000.96 447.49 1010.46 461.43 1020.58 476.05
  Q 1026.10 484.02 1027.86 487.43
  Q 1031.34 494.16 1034.27 501.12
  A 0.48 0.48 0.0 0 0 1035.10 501.21
  C 1048.18 483.34 1063.32 461.93 1081.65 435.15
  Q 1083.07 433.08 1085.60 430.05
  Q 1087.67 427.56 1089.53 424.90
  Q 1095.09 425.00 1098.25 429.49
  Q 1108.17 443.57 1125.82 469.28
  C 1135.84 483.86 1144.91 496.50 1154.98 511.72
  Q 1162.97 523.82 1170.36 534.05
  C 1179.21 546.31 1184.38 553.07 1191.37 563.43
  Q 1198.18 573.52 1215.73 598.27
  Q 1219.06 602.97 1221.00 607.21
  C 1223.19 612.00 1219.33 618.84 1214.92 620.26
  Q 1213.73 620.64 1204.53 620.58
  Q 1178.24 620.41 1155.70 620.52
  A 1.14 1.14 0.0 0 0 1154.56 621.63
  Q 1154.44 626.00 1153.45 631.23
  Q 1143.77 682.37 1117.05 727.17
  Q 1114.36 731.68 1112.20 734.62
  C 1109.84 737.84 1107.85 741.43 1105.51 744.40
  C 1100.86 750.28 1096.86 756.23 1092.77 761.19
  Q 1080.05 776.62 1064.21 791.94
  Q 1058.97 797.01 1056.31 799.08
  C 1052.31 802.21 1049.32 805.16 1045.25 807.95
  C 1037.21 813.45 1028.54 820.34 1019.82 825.44
  Q 1002.52 835.57 1001.24 836.25
  C 981.62 846.63 959.11 855.97 936.87 862.05
  C 922.68 865.92 908.80 869.60 894.22 871.44
  Q 852.52 876.72 810.04 871.58
  A 0.62 0.61 0.4 0 0 809.35 872.26
  Q 812.63 900.00 816.92 926.44
  C 821.24 953.05 823.68 970.61 827.22 993.26
  Q 829.49 1007.84 830.23 1020.02
  Q 831.29 1037.37 827.07 1051.04
  Q 814.60 1091.47 776.01 1108.75
  Q 767.69 1112.48 758.08 1114.23
  Q 751.82 1115.36 739.36 1115.37
  Q 385.37 1115.52 169.78 1115.37
  Q 146.52 1115.35 130.77 1115.55
  C 125.51 1115.62 120.66 1115.47 115.49 1114.57
  Q 88.84 1109.92 68.64 1092.74
  Q 52.37 1078.90 45.11 1061.95
  C 37.56 1044.33 37.06 1025.82 39.66 1006.69
  Q 42.66 984.69 45.97 962.64
  Q 56.34 893.67 61.68 855.18
  C 63.43 842.54 66.12 825.95 67.96 812.58
  Q 75.51 757.72 78.39 738.94
  Q 86.05 689.01 94.78 628.75
  C 95.81 621.63 97.72 612.85 98.57 606.31
  Q 101.99 579.71 104.93 559.67
  C 107.68 540.91 109.09 527.72 111.90 511.86
  Q 114.14 499.25 116.78 479.13
  Q 118.56 465.45 121.67 446.41
  C 124.86 426.84 133.49 409.66 148.34 396.84
  Q 164.64 382.76 186.41 377.90
  Q 193.24 376.37 206.70 376.27
  Q 221.11 376.17 229.25 376.18
  Q 481.34 376.69 626.00 376.22
  C 629.43 376.21 633.10 371.34 635.09 369.59
  Q 658.22 349.22 676.38 336.40
  C 692.41 325.08 711.02 315.58 733.36 305.55
  Q 744.95 300.34 758.89 296.32
  Q 782.20 289.61 785.06 289.06
  C 805.45 285.13 825.01 281.72 844.73 281.12
  A 0.62 0.61 4.2 0 1 845.36 281.84
  Q 844.60 286.24 844.55 290.43
  Q 844.51 294.33 845.90 298.91
  Q 847.91 305.50 851.91 311.50
  Z
  M 570.86 708.98
  Q 564.76 699.14 562.53 696.73
  Q 559.10 693.01 556.72 688.92
  A 0.71 0.71 0.0 0 0 555.40 689.28
  Q 555.41 699.08 556.29 713.96
  Q 556.62 719.57 554.89 724.82
  L 553.33 685.14
  A 5.47 5.44 -62.0 0 0 552.52 682.46
  C 547.37 674.07 541.80 666.81 536.40 658.71
  C 529.91 648.98 522.46 638.35 515.52 627.91
  Q 512.23 622.96 508.65 618.70
  L 507.35 617.98
  A 1.02 0.99 -79.9 0 1 506.85 617.24
  Q 506.66 615.76 506.12 614.93
  Q 504.03 611.76 498.80 604.73
  Q 497.53 602.80 496.41 601.05
  Q 489.91 590.89 482.94 581.05
  Q 480.00 576.90 476.98 570.12
  L 481.45 560.97
  Q 485.32 559.23 488.75 559.21
  Q 507.32 559.10 528.14 559.15
  A 0.59 0.59 0.0 0 0 528.69 558.35
  Q 528.58 558.08 527.89 557.44
  C 518.90 549.16 510.97 543.40 502.20 535.69
  Q 493.03 527.63 483.59 519.78
  Q 486.08 520.82 488.65 522.40
  Q 490.73 523.68 492.16 525.50
  A 3.48 3.43 -0.4 0 0 492.83 526.15
  Q 496.82 529.07 499.49 531.63
  Q 503.45 535.42 505.87 537.22
  Q 513.66 543.00 521.96 550.63
  C 523.36 551.92 525.59 552.77 526.31 553.99
  C 527.40 555.82 528.62 556.70 530.12 558.31
  A 4.72 4.71 -20.9 0 0 533.51 559.82
  Q 535.81 559.85 541.99 559.91
  Q 544.58 559.94 544.54 557.00
  Q 544.46 552.56 544.25 551.15
  C 547.13 535.26 549.09 519.21 554.03 504.46
  C 555.01 501.55 555.60 498.44 556.51 495.48
  Q 565.06 467.94 579.21 442.71
  C 587.66 427.65 593.84 416.83 604.53 404.28
  Q 608.76 399.32 610.24 396.55
  A 0.29 0.29 0.0 0 0 609.96 396.13
  Q 607.30 396.32 574.00 396.33
  Q 290.37 396.42 203.12 396.38
  C 193.98 396.38 184.04 397.49 176.14 401.67
  C 161.07 409.64 149.53 421.89 144.45 438.20
  Q 141.89 446.41 141.62 448.35
  Q 133.29 507.96 124.72 563.96
  Q 123.67 570.85 113.99 638.51
  C 112.99 645.49 111.29 652.98 110.59 658.94
  Q 107.13 688.04 95.73 761.19
  Q 90.54 794.56 75.45 902.49
  Q 71.06 933.88 66.91 957.42
  A 0.47 0.47 0.0 0 0 67.68 957.86
  Q 73.02 953.28 76.45 950.71
  Q 93.56 937.85 114.64 934.96
  C 121.15 934.06 126.60 934.28 135.25 934.26
  C 260.67 934.07 528.79 934.44 744.75 934.14
  Q 751.89 934.13 758.37 935.64
  C 766.38 937.50 772.68 938.89 779.72 942.98
  Q 788.73 948.22 793.82 951.66
  C 796.50 953.46 798.52 955.42 801.01 957.69
  A 0.42 0.41 -73.1 0 0 801.70 957.32
  L 787.82 869.08
  A 2.05 2.05 0.0 0 0 786.25 867.39
  Q 761.37 861.83 737.44 853.21
  C 734.24 852.07 731.58 850.42 728.07 849.11
  C 713.36 843.61 699.52 836.07 685.46 828.00
  Q 675.80 822.45 665.04 814.30
  Q 645.70 799.66 631.28 785.97
  Q 616.89 772.31 602.13 753.37
  C 592.44 740.93 581.32 723.82 570.86 708.98
  Z
  M 1027.80 621.05
  A 0.35 0.34 -73.5 0 0 1027.53 620.55
  Q 1025.27 620.33 1022.50 620.37
  Q 1014.69 620.48 975.60 620.40
  Q 971.14 620.39 969.50 619.61
  C 964.75 617.34 963.27 610.83 964.30 606.14
  C 964.84 603.66 967.53 600.31 969.07 598.07
  Q 980.93 580.77 984.53 575.02
  Q 986.28 572.23 998.46 555.40
  C 1002.53 549.79 1005.78 544.49 1010.13 538.39
  Q 1016.20 529.89 1020.81 522.28
  A 3.31 3.30 -38.3 0 0 1021.13 519.58
  Q 1019.16 513.28 1016.42 507.82
  Q 1006.54 488.16 992.81 469.81
  C 981.33 454.47 966.08 441.59 949.57 430.65
  C 942.27 425.81 937.62 423.59 928.27 418.59
  Q 920.24 414.29 906.80 410.25
  Q 885.53 403.85 861.50 401.49
  Q 852.13 400.58 844.00 401.28
  Q 823.89 403.02 801.99 408.39
  Q 794.92 410.12 788.17 412.57
  Q 777.71 416.37 774.68 417.71
  Q 764.81 422.08 752.13 430.22
  C 747.71 433.06 744.94 434.75 745.64 439.94
  Q 749.59 469.12 751.84 482.77
  C 754.73 500.37 756.94 518.89 759.90 536.80
  Q 761.93 549.11 763.04 557.70
  C 765.43 576.15 768.53 595.06 770.63 610.02
  Q 780.84 682.81 790.63 740.72
  C 791.24 744.34 792.18 743.85 795.53 744.89
  Q 823.65 753.67 851.24 753.44
  Q 875.47 753.24 900.71 746.70
  C 916.85 742.51 933.17 735.04 946.95 726.72
  Q 967.82 714.11 983.86 697.14
  Q 992.64 687.85 1000.89 676.68
  C 1010.24 664.01 1016.55 650.85 1023.07 635.44
  A 9.39 9.01 63.0 0 0 1023.68 633.42
  Q 1025.01 626.31 1027.80 621.05
  Z
  M 670.45 559.46
  Q 690.75 559.25 721.24 559.23
  Q 727.16 559.22 730.33 564.21
  Q 733.93 569.88 730.23 575.99
  Q 719.04 594.42 710.33 606.23
  C 700.45 619.63 693.76 630.58 683.97 644.05
  A 3.26 3.26 0.0 0 0 683.59 647.22
  C 690.99 665.01 701.36 679.39 714.73 694.57
  C 723.82 704.89 733.64 711.85 744.84 719.92
  C 753.23 725.97 760.19 729.92 769.20 734.65
  A 0.38 0.38 0.0 0 0 769.74 734.22
  Q 768.41 729.18 767.56 723.99
  Q 761.93 689.46 757.38 658.69
  Q 745.03 575.04 736.51 514.53
  C 735.97 510.69 734.88 506.11 734.49 503.00
  Q 733.41 494.52 727.28 450.16
  A 0.40 0.39 -26.6 0 0 726.61 449.94
  C 704.74 471.57 686.13 497.67 677.16 527.48
  Q 673.17 540.77 671.49 547.74
  Q 670.25 552.87 669.93 558.92
  A 0.52 0.52 0.0 0 0 670.45 559.46
  Z
  M 991.40 600.54
  Q 994.21 600.80 1000.75 600.81
  Q 1025.48 600.87 1036.25 600.69
  C 1043.08 600.57 1049.82 603.69 1048.89 611.68
  C 1046.78 629.91 1039.57 648.75 1031.52 664.80
  Q 1025.90 676.00 1015.38 690.48
  C 1011.32 696.07 1007.10 700.19 1002.74 705.58
  Q 998.59 710.73 992.55 716.23
  Q 978.85 728.71 963.96 738.63
  C 959.61 741.53 954.84 744.01 950.67 746.48
  Q 945.39 749.61 940.49 752.02
  Q 905.25 769.32 865.73 772.38
  Q 836.29 774.65 806.70 767.84
  Q 755.79 756.11 716.97 722.78
  Q 710.09 716.88 697.28 703.23
  C 686.70 691.96 678.24 678.06 670.35 664.89
  A 0.75 0.74 47.2 0 0 669.10 664.84
  L 617.64 737.76
  A 2.24 2.23 48.9 0 0 617.49 740.08
  Q 619.20 743.37 620.90 745.51
  Q 638.74 767.93 658.25 783.91
  C 670.81 794.20 685.78 805.44 700.23 813.76
  Q 716.46 823.10 731.58 829.60
  Q 752.68 838.68 778.96 845.25
  Q 799.11 850.29 813.00 852.25
  Q 863.97 859.42 914.03 847.82
  Q 938.25 842.20 954.29 836.34
  C 962.92 833.18 972.02 829.11 982.15 824.36
  Q 1005.16 813.59 1028.89 796.00
  Q 1034.44 791.89 1040.91 786.27
  C 1051.24 777.30 1061.67 768.04 1068.80 759.55
  Q 1077.77 748.87 1086.54 737.82
  Q 1090.34 733.02 1092.71 729.22
  Q 1111.83 698.66 1122.07 672.85
  Q 1127.61 658.92 1132.86 635.62
  C 1134.82 626.94 1135.51 618.43 1137.08 609.29
  Q 1138.59 600.55 1147.99 600.79
  Q 1158.45 601.06 1181.25 601.03
  Q 1187.40 601.02 1193.44 601.55
  A 0.66 0.66 0.0 0 0 1194.04 600.51
  L 1092.67 455.20
  A 0.82 0.81 -39.2 0 0 1091.44 455.08
  Q 1090.02 456.43 1089.28 457.52
  Q 1079.67 471.66 1069.54 486.03
  Q 1063.07 495.20 1036.70 533.75
  Q 1030.31 543.09 1024.07 551.62
  Q 1019.64 557.69 1011.38 569.44
  Q 1005.16 578.29 1001.25 584.59
  Q 997.02 591.39 990.99 599.64
  A 0.57 0.57 0.0 0 0 991.40 600.54
  Z
  M 809.66 1033.69
  Q 811.41 1018.48 806.90 1004.13
  Q 797.94 975.63 771.77 961.48
  C 762.93 956.70 753.46 954.48 742.47 954.30
  Q 732.44 954.13 727.75 954.15
  Q 694.32 954.32 659.27 954.32
  C 414.58 954.33 308.39 954.34 132.26 954.23
  Q 121.53 954.23 116.12 955.15
  C 98.37 958.17 82.84 967.60 72.61 982.42
  Q 68.91 987.78 66.79 991.56
  C 59.12 1005.24 56.13 1021.33 59.16 1037.00
  Q 61.21 1047.56 64.38 1054.40
  Q 78.04 1083.92 110.26 1093.25
  Q 116.74 1095.13 122.76 1095.20
  Q 171.09 1095.75 199.75 1095.69
  C 243.15 1095.60 285.99 1095.84 328.50 1095.75
  Q 432.99 1095.53 515.00 1095.84
  Q 569.42 1096.05 601.50 1095.84
  Q 642.98 1095.55 688.00 1095.67
  Q 727.82 1095.78 741.01 1095.65
  Q 768.46 1095.38 786.61 1078.07
  C 790.79 1074.08 794.98 1070.19 797.90 1065.64
  Q 801.23 1060.43 804.69 1052.95
  C 807.51 1046.86 808.83 1040.96 809.66 1033.69
  Z"
/>
<path fill="#569fd6" d="
  M 851.91 311.50
  Q 859.32 320.24 869.31 325.42
  C 875.39 328.56 883.34 331.29 889.16 333.99
  Q 909.81 343.55 935.60 354.42
  C 937.89 355.38 940.84 357.05 943.63 358.27
  Q 960.55 365.62 978.07 374.16
  C 984.52 377.31 996.85 381.83 1005.79 386.28
  C 1011.35 389.04 1014.28 390.60 1019.00 392.59
  Q 1036.30 399.85 1054.82 408.71
  Q 1058.07 410.26 1072.27 416.59
  Q 1080.91 420.43 1089.53 424.90
  Q 1087.67 427.56 1085.60 430.05
  Q 1083.07 433.08 1081.65 435.15
  C 1063.32 461.93 1048.18 483.34 1035.10 501.21
  A 0.48 0.48 0.0 0 1 1034.27 501.12
  Q 1031.34 494.16 1027.86 487.43
  Q 1026.10 484.02 1020.58 476.05
  C 1010.46 461.43 1000.96 447.49 987.70 435.56
  Q 986.87 434.82 974.18 424.71
  Q 966.45 418.56 960.15 414.63
  C 948.60 407.44 937.65 400.87 925.58 396.55
  Q 919.90 394.53 914.38 392.67
  Q 887.71 383.69 857.52 382.12
  Q 849.07 381.68 828.88 383.73
  Q 796.59 387.01 766.47 400.54
  C 718.24 422.22 680.05 463.35 660.88 512.50
  Q 656.43 523.92 653.86 535.85
  C 651.19 548.24 649.47 557.50 648.86 567.25
  C 648.51 572.87 650.74 577.87 657.25 577.92
  Q 697.70 578.25 702.00 578.22
  Q 703.43 578.20 705.23 577.47
  A 0.48 0.48 0.0 0 1 705.80 578.19
  L 605.09 722.78
  A 0.68 0.67 -43.8 0 1 603.97 722.76
  Q 594.22 707.82 590.16 702.26
  C 583.89 693.65 580.21 687.33 574.27 679.44
  C 566.86 669.58 559.92 658.86 553.20 649.25
  C 546.06 639.03 536.70 624.28 528.92 613.72
  C 520.88 602.80 513.10 589.98 504.40 578.82
  A 0.36 0.35 -15.7 0 1 504.72 578.25
  C 509.42 578.80 513.97 577.86 519.12 577.97
  Q 530.36 578.21 548.59 578.04
  C 555.86 577.98 561.18 578.55 562.05 570.50
  Q 564.07 551.80 564.73 547.50
  Q 573.17 492.78 599.06 447.26
  Q 603.75 439.02 614.53 423.52
  Q 619.58 416.27 623.52 411.95
  C 627.66 407.41 631.48 402.20 636.24 397.09
  Q 649.97 382.34 666.05 368.34
  C 671.17 363.89 676.80 360.10 682.45 355.55
  Q 685.07 353.45 689.20 350.66
  Q 714.11 333.82 742.28 322.52
  Q 747.04 320.62 761.27 315.51
  C 766.73 313.56 771.79 312.56 777.18 310.75
  C 782.15 309.07 786.50 308.25 791.37 306.85
  Q 793.07 306.36 797.12 305.66
  Q 808.77 303.65 810.15 303.44
  Q 827.87 300.72 844.35 300.40
  A 1.43 1.43 0.0 0 1 845.78 301.58
  Q 846.40 305.11 848.07 308.22
  Q 849.21 310.33 849.80 311.33
  Q 851.39 314.05 851.91 311.50
  Z"
/>
</g>
<g>
<path fill="#f6fdfe" d="
  M 1140.65 199.36
  Q 1137.02 207.09 1131.94 213.64
  A 1.63 1.62 -29.8 0 0 1131.61 214.83
  Q 1131.73 215.80 1131.34 216.88
  A 0.23 0.22 13.7 0 0 1131.53 217.18
  A 0.16 0.15 -0.0 0 0 1131.69 217.03
  L 1131.72 214.42
  A 0.62 0.60 -23.0 0 1 1131.90 213.99
  L 1135.30 210.59
  A 0.06 0.06 0.0 0 1 1135.41 210.64
  Q 1135.41 210.76 1135.37 211.02
  A 0.76 0.73 77.7 0 1 1135.06 211.52
  Q 1132.44 213.41 1132.55 215.98
  Q 1134.01 216.28 1132.05 218.04
  C 1126.94 215.46 1122.68 219.54 1120.80 223.92
  Q 1112.73 242.72 1109.21 250.29
  C 1102.73 264.20 1097.51 277.39 1091.34 290.18
  Q 1090.23 292.48 1089.90 294.84
  A 2.22 2.20 -55.5 0 0 1090.14 296.16
  Q 1092.53 300.59 1097.80 301.68
  Q 1097.48 302.81 1095.25 303.60
  A 0.99 0.98 89.5 0 0 1094.63 304.24
  Q 1093.21 308.81 1090.65 312.87
  Q 1089.76 314.29 1088.91 319.80
  L 1080.96 317.81
  A 1.55 1.55 0.0 0 0 1079.95 317.90
  Q 1077.96 318.79 1077.10 321.12
  Q 1075.18 326.29 1074.21 328.49
  Q 1069.03 340.23 1060.13 359.37
  A 1.87 1.87 0.0 0 1 1057.77 360.33
  C 1051.86 358.08 1046.33 355.00 1040.35 352.35
  Q 1030.33 347.91 1018.60 342.67
  C 1015.21 341.16 1010.82 338.77 1006.95 336.99
  Q 978.39 323.86 957.54 314.76
  C 944.12 308.89 929.93 301.98 915.95 296.06
  Q 906.76 292.17 895.14 286.75
  A 2.65 2.65 0.0 0 1 893.65 283.89
  Q 895.24 274.73 893.76 265.20
  C 892.16 254.88 885.40 246.87 877.92 240.25
  A 1.70 1.65 -77.3 0 1 877.40 239.40
  Q 876.76 236.96 877.62 234.90
  Q 888.10 209.88 895.63 193.13
  Q 896.97 190.14 900.82 190.38
  C 909.71 190.92 917.16 188.27 924.64 183.94
  Q 933.84 178.60 938.50 167.94
  Q 938.83 167.19 941.28 159.32
  C 943.33 152.69 943.13 147.73 941.33 141.38
  C 939.19 133.79 936.00 126.92 930.39 121.34
  A 1.18 1.18 0.0 0 1 930.14 120.06
  C 934.12 110.73 939.55 97.72 943.97 88.18
  Q 947.51 80.55 949.51 73.76
  A 1.71 1.70 7.7 0 1 951.14 72.53
  C 955.07 72.49 959.67 73.78 963.03 73.52
  Q 972.73 72.78 979.37 69.40
  Q 980.57 68.78 987.28 63.98
  C 990.91 61.38 993.62 57.94 997.23 54.90
  A 0.99 0.98 -52.9 0 1 998.28 54.75
  L 1162.43 128.48
  A 1.85 1.85 0.0 0 1 1163.31 131.04
  Q 1158.80 139.47 1149.45 160.61
  C 1145.34 169.91 1140.06 180.85 1135.85 191.34
  A 3.92 3.89 41.3 0 0 1136.08 194.74
  Q 1137.70 197.61 1140.65 199.36
  Z
  M 937.91 256.38
  A 2.98 2.97 -54.8 0 1 937.34 253.04
  C 944.46 237.77 949.58 225.53 956.35 210.41
  Q 973.48 172.21 975.08 168.81
  C 981.47 155.19 987.20 140.14 994.47 126.11
  Q 998.53 118.27 1001.89 109.42
  Q 1003.29 105.74 1007.11 107.33
  Q 1018.43 112.06 1027.98 116.49
  Q 1064.86 133.59 1100.62 148.61
  Q 1104.38 150.19 1105.51 150.20
  A 2.94 2.86 -54.7 0 0 1106.54 150.01
  C 1111.82 147.99 1112.01 140.49 1108.43 136.98
  Q 1106.66 135.25 1103.88 133.83
  Q 1103.25 133.51 1084.34 124.74
  C 1077.82 121.71 1072.04 119.56 1066.98 117.06
  C 1055.00 111.16 1042.91 106.35 1031.30 100.62
  C 1024.29 97.16 1015.35 93.49 1009.94 92.33
  C 1002.04 90.63 992.71 94.10 988.61 101.36
  C 984.60 108.46 980.80 118.50 977.57 125.30
  C 968.17 145.09 960.86 163.33 952.15 182.09
  Q 945.11 197.25 940.11 208.82
  Q 931.98 227.66 926.87 238.62
  Q 924.34 244.06 923.07 249.74
  C 921.54 256.60 923.33 264.67 929.74 268.29
  Q 938.88 273.47 948.95 278.05
  Q 981.70 292.95 1014.13 307.61
  Q 1021.78 311.07 1027.54 313.49
  Q 1029.61 314.35 1031.77 314.38
  A 2.15 1.96 -53.6 0 0 1032.63 314.21
  Q 1036.69 312.41 1037.21 307.04
  Q 1037.85 300.57 1032.53 298.55
  C 1025.47 295.87 1018.70 292.35 1012.56 289.76
  Q 997.51 283.41 977.84 274.51
  Q 951.50 262.59 942.14 258.93
  Q 939.35 257.85 937.91 256.38
  Z
  M 1092.63 186.07
  A 0.65 0.65 0.0 0 0 1091.78 185.73
  C 1075.04 192.79 1052.39 204.83 1042.19 209.76
  C 1035.60 212.95 1030.50 216.09 1023.24 219.76
  A 0.78 0.77 58.9 0 1 1022.25 219.51
  Q 1020.78 217.43 1019.65 215.12
  Q 1013.97 203.47 1009.83 192.95
  Q 1009.53 192.19 1007.08 189.11
  A 0.84 0.83 -31.2 0 0 1006.09 188.87
  L 989.13 196.52
  A 1.40 1.40 0.0 0 0 988.43 198.36
  C 992.01 206.48 995.24 214.58 999.06 222.52
  Q 1004.24 233.28 1009.05 244.44
  Q 1009.98 246.60 1011.47 248.55
  A 0.91 0.90 -26.3 0 0 1012.44 248.87
  Q 1015.07 248.15 1017.59 246.86
  Q 1051.62 229.39 1097.35 206.91
  Q 1098.63 206.29 1100.25 204.89
  A 1.11 1.10 -32.6 0 0 1100.54 203.60
  L 1092.63 186.07
  Z"
/>
<path fill="#f5a74a" d="
  M 1088.91 319.80
  Q 1089.76 314.29 1090.65 312.87
  Q 1093.21 308.81 1094.63 304.24
  A 0.99 0.98 89.5 0 1 1095.25 303.60
  Q 1097.48 302.81 1097.80 301.68
  C 1102.16 301.36 1104.77 298.41 1106.36 294.67
  C 1113.10 278.77 1120.47 263.27 1126.74 248.62
  Q 1133.63 232.51 1135.26 229.58
  Q 1136.60 227.15 1137.06 224.64
  C 1137.59 221.68 1134.26 219.19 1132.05 218.04
  Q 1134.01 216.28 1132.55 215.98
  Q 1135.39 212.32 1137.41 207.86
  Q 1138.21 206.11 1139.20 205.13
  A 0.80 0.79 -52.7 0 0 1139.04 203.86
  Q 1138.92 203.79 1138.75 203.94
  A 0.12 0.12 0.0 0 1 1138.55 203.86
  Q 1138.54 203.57 1138.69 203.14
  A 0.80 0.76 -1.4 0 1 1139.15 202.68
  Q 1141.40 201.84 1142.73 200.14
  Q 1143.99 200.39 1145.39 200.22
  C 1147.61 199.94 1148.83 197.74 1149.73 195.97
  C 1152.67 190.14 1156.38 184.04 1159.14 177.56
  C 1163.15 168.13 1164.38 164.79 1169.43 153.86
  Q 1171.53 149.33 1175.05 139.81
  Q 1175.82 137.75 1177.30 136.38
  A 1.10 1.09 -59.8 0 1 1178.27 136.12
  Q 1180.62 136.63 1182.19 137.39
  C 1200.90 146.40 1224.91 156.65 1245.58 166.13
  Q 1263.04 174.14 1268.89 176.59
  Q 1272.88 178.26 1272.13 182.54
  C 1269.53 197.54 1274.03 212.04 1286.45 220.99
  Q 1290.54 223.93 1288.34 228.82
  Q 1277.00 253.99 1233.82 349.85
  C 1227.96 362.86 1222.19 377.00 1215.77 390.64
  A 2.28 2.27 16.0 0 1 1213.43 391.93
  C 1200.45 390.32 1187.17 392.40 1177.12 401.37
  Q 1176.04 402.34 1170.64 408.15
  Q 1167.68 411.34 1163.41 409.11
  Q 1149.96 402.09 1132.91 394.38
  Q 1111.78 384.82 1078.46 369.80
  Q 1076.15 368.76 1073.96 366.62
  A 0.71 0.71 0.0 0 1 1073.82 365.82
  Q 1088.58 334.13 1090.57 329.12
  Q 1092.85 323.40 1088.91 319.80
  Z
  M 1218.95 228.98
  A 4.20 4.15 -45.2 0 1 1218.96 226.11
  Q 1222.58 216.28 1222.64 216.14
  Q 1224.66 210.95 1220.80 207.46
  C 1215.85 202.98 1209.45 206.37 1207.68 211.95
  C 1206.48 215.76 1204.21 222.20 1200.63 223.24
  Q 1182.94 228.41 1172.84 231.84
  C 1168.17 233.43 1161.61 236.22 1159.79 240.30
  Q 1142.57 278.87 1132.48 302.21
  C 1129.76 308.50 1128.00 316.00 1135.53 319.56
  Q 1151.47 327.09 1169.29 334.82
  C 1174.24 336.97 1181.89 340.57 1186.80 343.27
  C 1193.19 346.78 1199.52 345.08 1202.90 338.83
  C 1205.84 333.39 1207.64 328.79 1211.37 320.03
  Q 1213.29 315.54 1217.35 306.61
  Q 1228.56 281.94 1230.50 277.25
  C 1233.35 270.39 1233.34 266.85 1230.32 259.43
  Q 1226.27 249.47 1218.95 228.98
  Z"
/>
<path fill="#c4cbd4" d="
  M 1142.73 200.14
  Q 1141.40 201.84 1139.15 202.68
  A 0.80 0.76 -1.4 0 0 1138.69 203.14
  Q 1138.54 203.57 1138.55 203.86
  A 0.12 0.12 0.0 0 0 1138.75 203.94
  Q 1138.92 203.79 1139.04 203.86
  A 0.80 0.79 -52.7 0 1 1139.20 205.13
  Q 1138.21 206.11 1137.41 207.86
  Q 1135.39 212.32 1132.55 215.98
  Q 1132.44 213.41 1135.06 211.52
  A 0.76 0.73 77.7 0 0 1135.37 211.02
  Q 1135.41 210.76 1135.41 210.64
  A 0.06 0.06 0.0 0 0 1135.30 210.59
  L 1131.90 213.99
  A 0.62 0.60 -23.0 0 0 1131.72 214.42
  L 1131.69 217.03
  A 0.16 0.15 -0.0 0 1 1131.53 217.18
  A 0.23 0.22 13.7 0 1 1131.34 216.88
  Q 1131.73 215.80 1131.61 214.83
  A 1.63 1.62 -29.8 0 1 1131.94 213.64
  Q 1137.02 207.09 1140.65 199.36
  L 1142.73 200.14
  Z"
/>
<path fill="#384d66" d="
  M 1132.05 218.04
  C 1134.26 219.19 1137.59 221.68 1137.06 224.64
  Q 1136.60 227.15 1135.26 229.58
  Q 1133.63 232.51 1126.74 248.62
  C 1120.47 263.27 1113.10 278.77 1106.36 294.67
  C 1104.77 298.41 1102.16 301.36 1097.80 301.68
  Q 1092.53 300.59 1090.14 296.16
  A 2.22 2.20 -55.5 0 1 1089.90 294.84
  Q 1090.23 292.48 1091.34 290.18
  C 1097.51 277.39 1102.73 264.20 1109.21 250.29
  Q 1112.73 242.72 1120.80 223.92
  C 1122.68 219.54 1126.94 215.46 1132.05 218.04
  Z"
/>
</g>
<g>
<path fill="#63798b" d="
  M 937.91 256.38
  Q 939.35 257.85 942.14 258.93
  Q 951.50 262.59 977.84 274.51
  Q 997.51 283.41 1012.56 289.76
  C 1018.70 292.35 1025.47 295.87 1032.53 298.55
  Q 1037.85 300.57 1037.21 307.04
  Q 1036.69 312.41 1032.63 314.21
  A 2.15 1.96 -53.6 0 1 1031.77 314.38
  Q 1029.61 314.35 1027.54 313.49
  Q 1021.78 311.07 1014.13 307.61
  Q 981.70 292.95 948.95 278.05
  Q 938.88 273.47 929.74 268.29
  C 923.33 264.67 921.54 256.60 923.07 249.74
  Q 924.34 244.06 926.87 238.62
  Q 931.98 227.66 940.11 208.82
  Q 945.11 197.25 952.15 182.09
  C 960.86 163.33 968.17 145.09 977.57 125.30
  C 980.80 118.50 984.60 108.46 988.61 101.36
  C 992.71 94.10 1002.04 90.63 1009.94 92.33
  C 1015.35 93.49 1024.29 97.16 1031.30 100.62
  C 1042.91 106.35 1055.00 111.16 1066.98 117.06
  C 1072.04 119.56 1077.82 121.71 1084.34 124.74
  Q 1103.25 133.51 1103.88 133.83
  Q 1106.66 135.25 1108.43 136.98
  C 1112.01 140.49 1111.82 147.99 1106.54 150.01
  A 2.94 2.86 -54.7 0 1 1105.51 150.20
  Q 1104.38 150.19 1100.62 148.61
  Q 1064.86 133.59 1027.98 116.49
  Q 1018.43 112.06 1007.11 107.33
  Q 1003.29 105.74 1001.89 109.42
  Q 998.53 118.27 994.47 126.11
  C 987.20 140.14 981.47 155.19 975.08 168.81
  Q 973.48 172.21 956.35 210.41
  C 949.58 225.53 944.46 237.77 937.34 253.04
  A 2.98 2.97 -54.8 0 0 937.91 256.38
  Z"
/>
<path fill="#384d66" d="
  M 1092.63 186.07
  L 1100.54 203.60
  A 1.11 1.10 -32.6 0 1 1100.25 204.89
  Q 1098.63 206.29 1097.35 206.91
  Q 1051.62 229.39 1017.59 246.86
  Q 1015.07 248.15 1012.44 248.87
  A 0.91 0.90 -26.3 0 1 1011.47 248.55
  Q 1009.98 246.60 1009.05 244.44
  Q 1004.24 233.28 999.06 222.52
  C 995.24 214.58 992.01 206.48 988.43 198.36
  A 1.40 1.40 0.0 0 1 989.13 196.52
  L 1006.09 188.87
  A 0.84 0.83 -31.2 0 1 1007.08 189.11
  Q 1009.53 192.19 1009.83 192.95
  Q 1013.97 203.47 1019.65 215.12
  Q 1020.78 217.43 1022.25 219.51
  A 0.78 0.77 58.9 0 0 1023.24 219.76
  C 1030.50 216.09 1035.60 212.95 1042.19 209.76
  C 1052.39 204.83 1075.04 192.79 1091.78 185.73
  A 0.65 0.65 0.0 0 1 1092.63 186.07
  Z"
/>
</g>
<path fill="#384d66" d="
  M 1218.95 228.98
  Q 1226.27 249.47 1230.32 259.43
  C 1233.34 266.85 1233.35 270.39 1230.50 277.25
  Q 1228.56 281.94 1217.35 306.61
  Q 1213.29 315.54 1211.37 320.03
  C 1207.64 328.79 1205.84 333.39 1202.90 338.83
  C 1199.52 345.08 1193.19 346.78 1186.80 343.27
  C 1181.89 340.57 1174.24 336.97 1169.29 334.82
  Q 1151.47 327.09 1135.53 319.56
  C 1128.00 316.00 1129.76 308.50 1132.48 302.21
  Q 1142.57 278.87 1159.79 240.30
  C 1161.61 236.22 1168.17 233.43 1172.84 231.84
  Q 1182.94 228.41 1200.63 223.24
  C 1204.21 222.20 1206.48 215.76 1207.68 211.95
  C 1209.45 206.37 1215.85 202.98 1220.80 207.46
  Q 1224.66 210.95 1222.64 216.14
  Q 1222.58 216.28 1218.96 226.11
  A 4.20 4.15 -45.2 0 0 1218.95 228.98
  Z
  M 1188.4201 250.0270
  A 9.96 9.73 -173.7 0 0 1197.2523 260.7912
  A 9.96 9.73 -173.7 0 0 1208.2199 252.2130
  A 9.96 9.73 -173.7 0 0 1199.3877 241.4488
  A 9.96 9.73 -173.7 0 0 1188.4201 250.0270
  Z"
/>
<path fill="#f5a74a" d="
  M 1188.4201 250.0270
  A 9.96 9.73 -173.7 0 1 1199.3877 241.4488
  A 9.96 9.73 -173.7 0 1 1208.2199 252.2130
  A 9.96 9.73 -173.7 0 1 1197.2523 260.7912
  A 9.96 9.73 -173.7 0 1 1188.4201 250.0270
  Z"
/>
<g>
<path fill="#c4cbd4" d="
  M 544.25 551.15
  Q 528.74 537.97 514.05 524.97
  C 510.30 521.66 505.89 518.64 502.55 515.44
  Q 492.36 505.67 479.77 496.48
  C 477.03 494.48 473.17 494.54 470.25 494.54
  Q 423.60 494.52 386.18 494.31
  Q 374.92 494.24 357.83 494.41
  C 346.47 494.52 333.80 494.06 321.16 494.32
  C 313.95 494.48 308.64 495.87 302.84 499.57
  C 298.37 502.42 292.67 507.37 290.61 512.32
  Q 287.98 518.65 287.51 526.87
  C 287.04 534.90 286.30 544.05 286.13 548.25
  Q 284.61 584.31 282.58 619.77
  Q 281.17 644.48 279.87 666.99
  Q 278.26 694.80 273.75 773.44
  C 273.58 776.43 273.81 779.74 274.63 782.69
  Q 279.34 799.70 296.47 806.92
  Q 302.57 809.49 310.52 809.51
  Q 370.09 809.62 383.34 809.54
  C 434.19 809.22 496.20 809.84 540.25 809.36
  C 559.44 809.15 575.41 794.26 574.67 774.50
  Q 573.62 746.52 572.47 722.75
  Q 572.11 715.28 570.86 708.98
  C 581.32 723.82 592.44 740.93 602.13 753.37
  Q 616.89 772.31 631.28 785.97
  Q 645.70 799.66 665.04 814.30
  Q 675.80 822.45 685.46 828.00
  C 699.52 836.07 713.36 843.61 728.07 849.11
  C 731.58 850.42 734.24 852.07 737.44 853.21
  Q 761.37 861.83 786.25 867.39
  A 2.05 2.05 0.0 0 1 787.82 869.08
  L 801.70 957.32
  A 0.42 0.41 -73.1 0 1 801.01 957.69
  C 798.52 955.42 796.50 953.46 793.82 951.66
  Q 788.73 948.22 779.72 942.98
  C 772.68 938.89 766.38 937.50 758.37 935.64
  Q 751.89 934.13 744.75 934.14
  C 528.79 934.44 260.67 934.07 135.25 934.26
  C 126.60 934.28 121.15 934.06 114.64 934.96
  Q 93.56 937.85 76.45 950.71
  Q 73.02 953.28 67.68 957.86
  A 0.47 0.47 0.0 0 1 66.91 957.42
  Q 71.06 933.88 75.45 902.49
  Q 90.54 794.56 95.73 761.19
  Q 107.13 688.04 110.59 658.94
  C 111.29 652.98 112.99 645.49 113.99 638.51
  Q 123.67 570.85 124.72 563.96
  Q 133.29 507.96 141.62 448.35
  Q 141.89 446.41 144.45 438.20
  C 149.53 421.89 161.07 409.64 176.14 401.67
  C 184.04 397.49 193.98 396.38 203.12 396.38
  Q 290.37 396.42 574.00 396.33
  Q 607.30 396.32 609.96 396.13
  A 0.29 0.29 0.0 0 1 610.24 396.55
  Q 608.76 399.32 604.53 404.28
  C 593.84 416.83 587.66 427.65 579.21 442.71
  Q 565.06 467.94 556.51 495.48
  C 555.60 498.44 555.01 501.55 554.03 504.46
  C 549.09 519.21 547.13 535.26 544.25 551.15
  Z"
/>
<path fill="#c4cbd4" d="
  M 669.93 558.92
  Q 670.25 552.87 671.49 547.74
  Q 673.17 540.77 677.16 527.48
  C 686.13 497.67 704.74 471.57 726.61 449.94
  A 0.40 0.39 -26.6 0 1 727.28 450.16
  Q 733.41 494.52 734.49 503.00
  C 734.88 506.11 735.97 510.69 736.51 514.53
  Q 745.03 575.04 757.38 658.69
  Q 761.93 689.46 767.56 723.99
  Q 768.41 729.18 769.74 734.22
  A 0.38 0.38 0.0 0 1 769.20 734.65
  C 760.19 729.92 753.23 725.97 744.84 719.92
  C 733.64 711.85 723.82 704.89 714.73 694.57
  C 701.36 679.39 690.99 665.01 683.59 647.22
  A 3.26 3.26 0.0 0 1 683.97 644.05
  C 693.76 630.58 700.45 619.63 710.33 606.23
  Q 719.04 594.42 730.23 575.99
  Q 733.93 569.88 730.33 564.21
  Q 727.16 559.22 721.24 559.23
  Q 690.75 559.25 670.45 559.46
  A 0.52 0.52 0.0 0 1 669.93 558.92
  Z"
/>
<path fill="#f5a74a" d="
  M 991.40 600.54
  A 0.57 0.57 0.0 0 1 990.99 599.64
  Q 997.02 591.39 1001.25 584.59
  Q 1005.16 578.29 1011.38 569.44
  Q 1019.64 557.69 1024.07 551.62
  Q 1030.31 543.09 1036.70 533.75
  Q 1063.07 495.20 1069.54 486.03
  Q 1079.67 471.66 1089.28 457.52
  Q 1090.02 456.43 1091.44 455.08
  A 0.82 0.81 -39.2 0 1 1092.67 455.20
  L 1194.04 600.51
  A 0.66 0.66 0.0 0 1 1193.44 601.55
  Q 1187.40 601.02 1181.25 601.03
  Q 1158.45 601.06 1147.99 600.79
  Q 1138.59 600.55 1137.08 609.29
  C 1135.51 618.43 1134.82 626.94 1132.86 635.62
  Q 1127.61 658.92 1122.07 672.85
  Q 1111.83 698.66 1092.71 729.22
  Q 1090.34 733.02 1086.54 737.82
  Q 1077.77 748.87 1068.80 759.55
  C 1061.67 768.04 1051.24 777.30 1040.91 786.27
  Q 1034.44 791.89 1028.89 796.00
  Q 1005.16 813.59 982.15 824.36
  C 972.02 829.11 962.92 833.18 954.29 836.34
  Q 938.25 842.20 914.03 847.82
  Q 863.97 859.42 813.00 852.25
  Q 799.11 850.29 778.96 845.25
  Q 752.68 838.68 731.58 829.60
  Q 716.46 823.10 700.23 813.76
  C 685.78 805.44 670.81 794.20 658.25 783.91
  Q 638.74 767.93 620.90 745.51
  Q 619.20 743.37 617.49 740.08
  A 2.24 2.23 48.9 0 1 617.64 737.76
  L 669.10 664.84
  A 0.75 0.74 47.2 0 1 670.35 664.89
  C 678.24 678.06 686.70 691.96 697.28 703.23
  Q 710.09 716.88 716.97 722.78
  Q 755.79 756.11 806.70 767.84
  Q 836.29 774.65 865.73 772.38
  Q 905.25 769.32 940.49 752.02
  Q 945.39 749.61 950.67 746.48
  C 954.84 744.01 959.61 741.53 963.96 738.63
  Q 978.85 728.71 992.55 716.23
  Q 998.59 710.73 1002.74 705.58
  C 1007.10 700.19 1011.32 696.07 1015.38 690.48
  Q 1025.90 676.00 1031.52 664.80
  C 1039.57 648.75 1046.78 629.91 1048.89 611.68
  C 1049.82 603.69 1043.08 600.57 1036.25 600.69
  Q 1025.48 600.87 1000.75 600.81
  Q 994.21 600.80 991.40 600.54
  Z"
/>
<path fill="#63798b" d="
  M 544.25 551.15
  Q 544.46 552.56 544.54 557.00
  Q 544.58 559.94 541.99 559.91
  Q 535.81 559.85 533.51 559.82
  A 4.72 4.71 -20.9 0 1 530.12 558.31
  C 528.62 556.70 527.40 555.82 526.31 553.99
  C 525.59 552.77 523.36 551.92 521.96 550.63
  Q 513.66 543.00 505.87 537.22
  Q 503.45 535.42 499.49 531.63
  Q 496.82 529.07 492.83 526.15
  A 3.48 3.43 -0.4 0 1 492.16 525.50
  Q 490.73 523.68 488.65 522.40
  Q 486.08 520.82 483.59 519.78
  L 481.05 518.55
  A 0.45 0.45 0.0 0 0 480.40 518.96
  L 481.45 560.97
  L 476.98 570.12
  Q 474.68 566.49 471.37 562.89
  Q 468.27 559.53 467.51 556.70
  Q 466.74 553.89 466.83 547.75
  Q 467.12 526.90 466.42 510.71
  A 1.35 1.34 -1.1 0 0 465.08 509.43
  Q 436.27 509.29 399.50 509.48
  Q 378.21 509.60 322.99 509.15
  Q 314.14 509.08 308.53 515.76
  Q 304.80 520.21 304.66 523.68
  C 303.85 544.34 302.21 564.81 301.47 583.24
  Q 300.41 609.56 299.12 630.25
  Q 296.65 669.82 294.62 713.08
  C 293.81 730.20 291.74 755.92 291.23 772.74
  C 290.96 781.51 294.95 789.25 303.27 792.14
  Q 306.23 793.17 313.76 793.16
  Q 511.58 793.00 537.66 793.13
  C 544.32 793.17 549.45 792.22 553.20 787.23
  Q 557.62 781.33 557.42 773.99
  Q 556.76 749.34 554.89 724.82
  Q 556.62 719.57 556.29 713.96
  Q 555.41 699.08 555.40 689.28
  A 0.71 0.71 0.0 0 1 556.72 688.92
  Q 559.10 693.01 562.53 696.73
  Q 564.76 699.14 570.86 708.98
  Q 572.11 715.28 572.47 722.75
  Q 573.62 746.52 574.67 774.50
  C 575.41 794.26 559.44 809.15 540.25 809.36
  C 496.20 809.84 434.19 809.22 383.34 809.54
  Q 370.09 809.62 310.52 809.51
  Q 302.57 809.49 296.47 806.92
  Q 279.34 799.70 274.63 782.69
  C 273.81 779.74 273.58 776.43 273.75 773.44
  Q 278.26 694.80 279.87 666.99
  Q 281.17 644.48 282.58 619.77
  Q 284.61 584.31 286.13 548.25
  C 286.30 544.05 287.04 534.90 287.51 526.87
  Q 287.98 518.65 290.61 512.32
  C 292.67 507.37 298.37 502.42 302.84 499.57
  C 308.64 495.87 313.95 494.48 321.16 494.32
  C 333.80 494.06 346.47 494.52 357.83 494.41
  Q 374.92 494.24 386.18 494.31
  Q 423.60 494.52 470.25 494.54
  C 473.17 494.54 477.03 494.48 479.77 496.48
  Q 492.36 505.67 502.55 515.44
  C 505.89 518.64 510.30 521.66 514.05 524.97
  Q 528.74 537.97 544.25 551.15
  Z"
/>
<path fill="#f6fdfe" d="
  M 476.98 570.12
  Q 480.00 576.90 482.94 581.05
  Q 489.91 590.89 496.41 601.05
  Q 497.53 602.80 498.80 604.73
  Q 494.87 604.02 492.51 604.00
  Q 481.04 603.89 454.52 603.90
  Q 450.04 603.90 448.20 604.83
  C 443.47 607.22 443.51 612.98 447.02 616.28
  Q 449.77 618.87 453.50 619.01
  Q 478.66 619.98 508.65 618.70
  Q 512.23 622.96 515.52 627.91
  C 522.46 638.35 529.91 648.98 536.40 658.71
  C 541.80 666.81 547.37 674.07 552.52 682.46
  A 5.47 5.44 -62.0 0 1 553.33 685.14
  L 554.89 724.82
  Q 556.76 749.34 557.42 773.99
  Q 557.62 781.33 553.20 787.23
  C 549.45 792.22 544.32 793.17 537.66 793.13
  Q 511.58 793.00 313.76 793.16
  Q 306.23 793.17 303.27 792.14
  C 294.95 789.25 290.96 781.51 291.23 772.74
  C 291.74 755.92 293.81 730.20 294.62 713.08
  Q 296.65 669.82 299.12 630.25
  Q 300.41 609.56 301.47 583.24
  C 302.21 564.81 303.85 544.34 304.66 523.68
  Q 304.80 520.21 308.53 515.76
  Q 314.14 509.08 322.99 509.15
  Q 378.21 509.60 399.50 509.48
  Q 436.27 509.29 465.08 509.43
  A 1.35 1.34 -1.1 0 1 466.42 510.71
  Q 467.12 526.90 466.83 547.75
  Q 466.74 553.89 467.51 556.70
  Q 468.27 559.53 471.37 562.89
  Q 474.68 566.49 476.98 570.12
  Z
  M 335.95 553.05
  Q 334.83 555.28 334.63 559.12
  Q 333.29 584.36 332.43 611.66
  C 332.31 615.34 331.77 618.41 336.22 618.35
  Q 349.98 618.15 350.82 618.17
  A 1.70 1.66 28.4 0 0 351.77 617.90
  Q 352.94 617.17 353.00 614.49
  Q 353.29 601.41 354.07 582.23
  A 0.50 0.49 -69.7 0 1 354.87 581.86
  Q 357.52 583.95 359.74 586.77
  Q 370.54 600.50 372.30 602.84
  Q 374.96 606.40 376.45 606.86
  C 381.40 608.39 386.13 602.72 389.03 599.02
  Q 395.27 591.08 401.78 583.44
  Q 402.60 583.17 403.13 582.66
  A 0.64 0.64 0.0 0 1 404.21 583.13
  L 403.47 615.98
  A 2.14 2.14 0.0 0 0 405.56 618.17
  L 422.91 618.57
  A 2.34 2.34 0.0 0 0 425.30 616.29
  Q 425.53 606.75 425.23 598.37
  C 424.73 584.53 424.85 566.99 424.87 558.25
  Q 424.88 555.45 424.27 553.92
  A 1.39 1.38 -10.2 0 0 423.01 553.05
  L 405.85 552.83
  A 2.40 2.40 0.0 0 0 404.65 553.13
  C 402.49 554.19 399.06 558.71 397.73 560.49
  Q 393.99 565.49 382.80 579.55
  Q 381.36 581.37 380.44 581.58
  Q 378.81 581.97 377.61 580.55
  Q 374.58 576.98 368.64 569.03
  C 365.05 564.22 360.90 559.90 355.77 554.13
  A 4.34 4.33 68.5 0 0 352.45 552.68
  L 335.95 553.05
  Z
  M 519.95 644.43
  A 7.06 7.06 0.0 0 0 512.89 637.37
  L 337.83 637.37
  A 7.06 7.06 0.0 0 0 330.77 644.43
  L 330.77 645.59
  A 7.06 7.06 0.0 0 0 337.83 652.65
  L 512.89 652.65
  A 7.06 7.06 0.0 0 0 519.95 645.59
  L 519.95 644.43
  Z
  M 520.7900 678.1873
  A 7.61 7.61 0.0 0 0 513.1933 670.5640
  L 336.7536 670.2560
  A 7.61 7.61 0.0 0 0 329.1303 677.8527
  L 329.1300 678.0327
  A 7.61 7.61 0.0 0 0 336.7267 685.6560
  L 513.1664 685.9640
  A 7.61 7.61 0.0 0 0 520.7897 678.3673
  L 520.7900 678.1873
  Z
  M 521.63 711.39
  A 7.69 7.69 0.0 0 0 513.94 703.70
  L 335.18 703.70
  A 7.69 7.69 0.0 0 0 327.49 711.39
  L 327.49 711.55
  A 7.69 7.69 0.0 0 0 335.18 719.24
  L 513.94 719.24
  A 7.69 7.69 0.0 0 0 521.63 711.55
  L 521.63 711.39
  Z
  M 452.23 744.98
  A 7.61 7.61 0.0 0 0 444.62 737.37
  L 333.78 737.37
  A 7.61 7.61 0.0 0 0 326.17 744.98
  L 326.17 745.20
  A 7.61 7.61 0.0 0 0 333.78 752.81
  L 444.62 752.81
  A 7.61 7.61 0.0 0 0 452.23 745.20
  L 452.23 744.98
  Z"
/>
<path fill="#f6fdfe" d="
  M 483.59 519.78
  Q 493.03 527.63 502.20 535.69
  C 510.97 543.40 518.90 549.16 527.89 557.44
  Q 528.58 558.08 528.69 558.35
  A 0.59 0.59 0.0 0 1 528.14 559.15
  Q 507.32 559.10 488.75 559.21
  Q 485.32 559.23 481.45 560.97
  L 480.40 518.96
  A 0.45 0.45 0.0 0 1 481.05 518.55
  L 483.59 519.78
  Z"
/>
<path fill="#63798b" d="
  M 498.80 604.73
  Q 504.03 611.76 506.12 614.93
  Q 506.66 615.76 506.85 617.24
  A 1.02 0.99 -79.9 0 0 507.35 617.98
  L 508.65 618.70
  Q 478.66 619.98 453.50 619.01
  Q 449.77 618.87 447.02 616.28
  C 443.51 612.98 443.47 607.22 448.20 604.83
  Q 450.04 603.90 454.52 603.90
  Q 481.04 603.89 492.51 604.00
  Q 494.87 604.02 498.80 604.73
  Z"
/>
<path fill="#63798b" d="
  M 809.66 1033.69
  C 808.83 1040.96 807.51 1046.86 804.69 1052.95
  Q 801.23 1060.43 797.90 1065.64
  C 794.98 1070.19 790.79 1074.08 786.61 1078.07
  Q 768.46 1095.38 741.01 1095.65
  Q 727.82 1095.78 688.00 1095.67
  Q 642.98 1095.55 601.50 1095.84
  Q 569.42 1096.05 515.00 1095.84
  Q 432.99 1095.53 328.50 1095.75
  C 285.99 1095.84 243.15 1095.60 199.75 1095.69
  Q 171.09 1095.75 122.76 1095.20
  Q 116.74 1095.13 110.26 1093.25
  Q 78.04 1083.92 64.38 1054.40
  Q 61.21 1047.56 59.16 1037.00
  C 56.13 1021.33 59.12 1005.24 66.79 991.56
  Q 68.91 987.78 72.61 982.42
  C 82.84 967.60 98.37 958.17 116.12 955.15
  Q 121.53 954.23 132.26 954.23
  C 308.39 954.34 414.58 954.33 659.27 954.32
  Q 694.32 954.32 727.75 954.15
  Q 732.44 954.13 742.47 954.30
  C 753.46 954.48 762.93 956.70 771.77 961.48
  Q 797.94 975.63 806.90 1004.13
  Q 811.41 1018.48 809.66 1033.69
  Z"
/>
</g>
<g>
<path fill="#63798b" d="
  M 401.78 583.44
  Q 401.29 582.95 398.94 584.83
  A 6.55 6.55 0.0 0 0 397.98 585.79
  Q 392.61 592.54 385.77 600.39
  C 384.01 602.39 382.08 603.85 380.00 605.02
  Q 377.57 606.39 375.45 604.01
  Q 367.83 595.49 362.78 588.32
  Q 361.02 585.82 356.09 581.16
  A 1.66 1.65 -20.6 0 0 355.09 580.71
  Q 352.22 580.49 352.06 583.03
  Q 351.47 592.57 351.65 615.33
  A 0.94 0.92 73.2 0 1 351.23 616.13
  Q 349.94 617.01 347.77 616.88
  Q 340.68 616.49 335.39 616.40
  A 0.62 0.62 0.0 0 1 334.77 615.77
  L 336.14 555.40
  A 0.91 0.89 -12.2 0 1 336.67 554.60
  L 338.62 553.72
  A 0.14 0.13 -52.1 0 0 338.59 553.46
  L 335.95 553.05
  L 352.45 552.68
  A 4.34 4.33 68.5 0 1 355.77 554.13
  C 360.90 559.90 365.05 564.22 368.64 569.03
  Q 374.58 576.98 377.61 580.55
  Q 378.81 581.97 380.44 581.58
  Q 381.36 581.37 382.80 579.55
  Q 393.99 565.49 397.73 560.49
  C 399.06 558.71 402.49 554.19 404.65 553.13
  A 2.40 2.40 0.0 0 1 405.85 552.83
  L 423.01 553.05
  A 1.39 1.38 -10.2 0 1 424.27 553.92
  Q 424.88 555.45 424.87 558.25
  C 424.85 566.99 424.73 584.53 425.23 598.37
  Q 425.53 606.75 425.30 616.29
  A 2.34 2.34 0.0 0 1 422.91 618.57
  L 405.56 618.17
  A 2.14 2.14 0.0 0 1 403.47 615.98
  L 404.21 583.13
  A 0.64 0.64 0.0 0 0 403.13 582.66
  Q 402.60 583.17 401.78 583.44
  Z"
/>
<path fill="#384d66" d="
  M 335.95 553.05
  L 338.59 553.46
  A 0.14 0.13 -52.1 0 1 338.62 553.72
  L 336.67 554.60
  A 0.91 0.89 -12.2 0 0 336.14 555.40
  L 334.77 615.77
  A 0.62 0.62 0.0 0 0 335.39 616.40
  Q 340.68 616.49 347.77 616.88
  Q 349.94 617.01 351.23 616.13
  A 0.94 0.92 73.2 0 0 351.65 615.33
  Q 351.47 592.57 352.06 583.03
  Q 352.22 580.49 355.09 580.71
  A 1.66 1.65 -20.6 0 1 356.09 581.16
  Q 361.02 585.82 362.78 588.32
  Q 367.83 595.49 375.45 604.01
  Q 377.57 606.39 380.00 605.02
  C 382.08 603.85 384.01 602.39 385.77 600.39
  Q 392.61 592.54 397.98 585.79
  A 6.55 6.55 0.0 0 1 398.94 584.83
  Q 401.29 582.95 401.78 583.44
  Q 395.27 591.08 389.03 599.02
  C 386.13 602.72 381.40 608.39 376.45 606.86
  Q 374.96 606.40 372.30 602.84
  Q 370.54 600.50 359.74 586.77
  Q 357.52 583.95 354.87 581.86
  A 0.50 0.49 -69.7 0 0 354.07 582.23
  Q 353.29 601.41 353.00 614.49
  Q 352.94 617.17 351.77 617.90
  A 1.70 1.66 28.4 0 1 350.82 618.17
  Q 349.98 618.15 336.22 618.35
  C 331.77 618.41 332.31 615.34 332.43 611.66
  Q 333.29 584.36 334.63 559.12
  Q 334.83 555.28 335.95 553.05
  Z"
/>
<path fill="#63798b" d="
  M 519.95 645.59
  A 7.06 7.06 0.0 0 1 512.89 652.65
  L 337.83 652.65
  A 7.06 7.06 0.0 0 1 330.77 645.59
  L 330.77 644.43
  A 7.06 7.06 0.0 0 1 337.83 637.37
  L 512.89 637.37
  A 7.06 7.06 0.0 0 1 519.95 644.43
  L 519.95 645.59
  Z"
/>
<path fill="#63798b" d="
  M 520.7897 678.3673
  A 7.61 7.61 0.0 0 1 513.1664 685.9640
  L 336.7267 685.6560
  A 7.61 7.61 0.0 0 1 329.1300 678.0327
  L 329.1303 677.8527
  A 7.61 7.61 0.0 0 1 336.7536 670.2560
  L 513.1933 670.5640
  A 7.61 7.61 0.0 0 1 520.7900 678.1873
  L 520.7897 678.3673
  Z"
/>
<path fill="#63798b" d="
  M 521.63 711.55
  A 7.69 7.69 0.0 0 1 513.94 719.24
  L 335.18 719.24
  A 7.69 7.69 0.0 0 1 327.49 711.55
  L 327.49 711.39
  A 7.69 7.69 0.0 0 1 335.18 703.70
  L 513.94 703.70
  A 7.69 7.69 0.0 0 1 521.63 711.39
  L 521.63 711.55
  Z"
/>
<path fill="#63798b" d="
  M 452.23 745.20
  A 7.61 7.61 0.0 0 1 444.62 752.81
  L 333.78 752.81
  A 7.61 7.61 0.0 0 1 326.17 745.20
  L 326.17 744.98
  A 7.61 7.61 0.0 0 1 333.78 737.37
  L 444.62 737.37
  A 7.61 7.61 0.0 0 1 452.23 744.98
  L 452.23 745.20
  Z"
/>
</g>
</svg>
